<svg width="960" height="1080" viewBox="0 0 960 1080" fill="none" xmlns="http://www.w3.org/2000/svg">
<rect width="960" height="1080" fill="#6CE9C5"/>
<path d="M517.394 507.571H490.775V658.095H517.394V507.571Z" fill="#1F295C"/>
<path d="M618.49 567.143C611.062 557.857 599.919 552.095 584.871 552.095C557.443 552.095 534.776 575.81 534.776 606.524C534.776 637.238 557.443 660.952 584.871 660.952C599.919 660.952 611.062 655.191 618.49 645.905V658.048H645.109V554.952H618.49V567.143ZM589.823 635.619C573.538 635.619 561.347 623.857 561.347 606.524C561.347 589.191 573.49 577.429 589.823 577.429C606.157 577.429 618.49 589.191 618.49 606.524C618.49 623.857 606.3 635.619 589.823 635.619Z" fill="#1F295C"/>
<path d="M694.728 572.714V555H668.109V658.095H694.728V608.809C694.728 587.143 712.252 580.952 726.062 582.619V552.905C713.062 552.905 700.062 558.667 694.728 572.714Z" fill="#1F295C"/>
<path d="M397.586 511.048C358.11 511.048 327.11 540.619 327.11 584.572C327.11 628.524 358.11 658.095 397.586 658.095C437.062 658.095 468.015 628.524 468.015 584.572C468.015 540.619 437.062 511.048 397.586 511.048ZM397.586 628.667C373.729 628.667 356.681 611.667 356.681 584.572C356.681 557.476 373.729 540.524 397.586 540.524C421.443 540.524 438.443 557.524 438.443 584.572C438.443 611.619 421.157 628.667 397.586 628.667Z" fill="#1F295C"/>
<path d="M290.823 510.952C286.633 510.952 282.728 512.333 279.538 515L235.3 551.952C229.014 557.095 228.204 566.476 233.49 572.714C238.776 579 248.014 579.667 254.252 574.524L278.823 554V658.048H308.395V528.476C308.395 518.857 300.442 510.905 290.823 510.905V510.952Z" fill="#1F295C"/>
<path d="M363.442 495.429C368.585 489.143 367.633 479.905 361.442 474.619L342.871 459.238C336.585 454.095 327.299 454.857 322.156 461.143C317.013 467.429 317.966 476.667 324.156 481.953L342.728 497.333C349.013 502.476 358.299 501.714 363.442 495.429Z" fill="#1F295C"/>
<path d="M393.966 480.952C402.109 480.952 408.681 474.286 408.633 466.143L408.347 433.667C408.347 425.429 401.633 419 393.49 419C385.347 419 378.776 425.667 378.823 433.81L379.109 466.286C379.109 474.429 385.776 481 393.919 480.952H393.966Z" fill="#1F295C"/>
<path d="M451.679 453.81L427.013 474.81C420.87 480.095 420.108 489.381 425.394 495.476C430.775 501.667 440.06 502.429 446.203 497.191L470.87 476.191C477.013 470.905 477.775 461.619 472.489 455.524C467.203 449.381 457.822 448.571 451.679 453.81Z" fill="#1F295C"/>
</svg>
