<svg version="1.1" xmlns="http://www.w3.org/2000/svg" width="133.233" height="150" viewBox="0 0 133.233 150"><path d="M0 0.113h133.233v149.887H0z" fill="#6CE9C5"/><path d="M65.713 68.536h2.089v0.169h2.089v0.226l0.96 0.056v0.226h0.677v0.226h0.734v0.226h0.734v0.226h0.677v0.226h0.452l0.056 0.226h0.452v0.282h0.226v0.226h0.452v0.226h0.508v0.226h0.226v0.226h0.452v0.282h0.226v0.226h0.226v0.226h0.282v0.226h0.452v0.226h0.226v0.226h0.226v0.282h0.226v0.226h0.226v0.226h0.282v0.226h0.226v0.226h0.226v0.508h0.226v0.226h0.226v0.226h0.226l0.056 0.452h0.226v0.226h0.226v0.508h0.226v0.226h0.226v0.452h0.226v0.508h0.226l0.056 0.452h0.226v0.452h0.226v0.734h0.226v0.677h0.226v0.734h0.226l0.056 0.96h0.169l0.056 1.581h0.169v5.702h-0.169l0.001 0.102q0.002 0.231 0.003 0.463l0.001 0.16c0.001 0.31 -0.016 0.606 -0.061 0.913h-0.169l-0.056 0.903h-0.226v0.734h-0.226v0.677h-0.226v0.734h-0.226v0.452h-0.226l-0.056 0.508h-0.226v0.452h-0.226v0.452h-0.226v0.226h-0.226v0.508h-0.226v0.226h-0.282v0.452h-0.226v0.226h-0.226v0.282h-0.226v0.452h-0.226v0.226h-0.282v0.226h-0.226v0.226h-0.226v0.226h-0.226v0.282h-0.226v0.226h-0.226v0.226h-0.452v0.226h-0.282v0.226h-0.226v0.282h-0.226v0.226h-0.452v0.226h-0.282v0.226h-0.452v0.226h-0.452v0.282h-0.226v0.226h-0.508v0.226h-0.452v0.226h-0.734v0.226h-0.677v0.226l-0.452 0.056v0.226h-0.96v0.226h-1.186v0.226h-1.186v0.226h-3.274v-0.226h-1.411v-0.226h-1.411v-0.226h-0.96v-0.226h-0.452v-0.282h-0.734v-0.226h-0.452v-0.226h-0.452v-0.226l-0.452 -0.056 -0.056 -0.169 -0.452 -0.056v-0.226h-0.452v-0.226h-0.226v-0.226h-0.508v-0.226h-0.452v-0.226h-0.226v-0.282h-0.226v-0.226h-0.226v-0.226h-0.282v-0.226h-0.452v-0.226h-0.226v-0.452h-0.226v-0.282h-0.282v-0.226h-0.226v-0.226h-0.226v-0.226h-0.226v-0.226h-0.226v-0.226h-0.282v-0.282h-0.226v-0.452h-0.226v-0.226h-0.226v-0.508h-0.226v-0.452h-0.226v-0.452h-0.282v-0.282h-0.169c-0.054 -0.163 -0.062 -0.265 -0.06 -0.434l0.002 -0.138L51.769 93.658h-0.226v-0.452h-0.226v-0.734h-0.226v-0.677h-0.226v-0.96h-0.226l-0.056 -0.677h-0.169c-0.051 -0.173 -0.063 -0.327 -0.062 -0.507l0.001 -0.16 0.001 -0.166 0.001 -0.168q0.001 -0.205 0.003 -0.41h-0.169c-0.071 -0.275 -0.064 -0.545 -0.063 -0.827v-0.165c0 -0.18 0.001 -0.36 0.001 -0.54l0 -0.375q0 -0.493 0.001 -0.985 0.001 -0.503 0.001 -1.006 0.001 -0.986 0.003 -1.973l0.226 -0.056 -0.002 -0.14 -0.002 -0.184 -0.002 -0.183c0.005 -0.144 0.02 -0.259 0.062 -0.396h0.169l0.056 -1.186h0.226v-0.96h0.226v-0.677h0.226v-0.452h0.226l0.056 -0.508h0.226v-0.452h0.226v-0.508h0.226v-0.452h0.226v-0.452h0.226v-0.452h0.226v-0.282h0.226v-0.226h0.282v-0.452h0.226v-0.226h0.226v-0.282h0.226v-0.226h0.226v-0.226h0.226l0.056 -0.452h0.226v-0.226h0.226v-0.226l0.452 -0.056v-0.226h0.226v-0.226h0.226v-0.226h0.282v-0.226h0.226v-0.226h0.452v-0.282h0.282v-0.169h0.452v-0.282h0.226v-0.226h0.452v-0.226h0.282v-0.226h0.677v-0.282h0.452v-0.226h0.452v-0.226h0.734v-0.226h0.677v-0.226h0.734v-0.226c0.396 -0.062 0.785 -0.062 1.186 -0.056v-0.169c0.476 -0.048 0.947 -0.064 1.425 -0.06l0.195 0.001q0.234 0.001 0.469 0.003z" fill="#1E295B"/><path d="M65.431 75.593h2.371v0.169l1.411 0.056v0.226h0.903v0.226h0.508v0.226h0.452v0.226h0.734v0.226h0.226v0.226l0.452 0.056v0.226h0.226v0.226h0.226v0.226h0.282v0.226h0.226v0.226h0.226v0.226h0.226v0.282h0.226v0.226h0.226l0.056 0.452h0.226v0.226h0.226v0.508h0.226v0.452h0.226v0.452h0.282v0.452h0.226v1.016h0.169c0.06 0.195 0.062 0.375 0.06 0.579l-0.002 0.184L76.044 83.553h0.226v4.46h-0.226v1.186h-0.226c0.002 0.103 0.002 0.103 0.004 0.208 0 0.182 -0.016 0.348 -0.06 0.526h-0.226v0.677h-0.226v0.452h-0.226v0.508h-0.226v0.452h-0.226v0.226h-0.226v0.226h-0.282v0.452h-0.226v0.282h-0.226v0.226h-0.226v0.226h-0.226v0.282h-0.226v0.226h-0.226v0.226h-0.282v0.226h-0.452v0.226h-0.226v0.226h-0.508v0.226l-0.452 0.056v0.169l-0.452 0.056v0.226h-0.96v0.226h-0.734v0.226h-4.234v-0.226h-0.903v-0.226h-0.452l-0.056 -0.226h-0.452v-0.282h-0.452v-0.226h-0.508v-0.226h-0.452v-0.226h-0.226v-0.226h-0.508v-0.226h-0.226v-0.226h-0.226v-0.282h-0.226v-0.226h-0.226v-0.226h-0.226v-0.282h-0.226v-0.452h-0.226v-0.226h-0.282v-0.452h-0.226v-0.508h-0.226v-0.452h-0.226v-0.452h-0.226l-0.056 -0.734h-0.226v-0.677h-0.169c-0.057 -0.189 -0.063 -0.36 -0.062 -0.557l0.001 -0.191 0.001 -0.198 0.001 -0.201q0.001 -0.245 0.003 -0.491h-0.226v-3.105h0.226l-0.002 -0.19 -0.002 -0.248 -0.001 -0.125c-0.001 -0.199 0.008 -0.375 0.061 -0.567h0.169l-0.002 -0.202 -0.002 -0.264 -0.001 -0.133 -0.001 -0.129 -0.001 -0.118c0.007 -0.119 0.03 -0.225 0.063 -0.34h0.169v-0.508h0.282v-0.452h0.226v-0.452h0.226v-0.508h0.226v-0.452h0.226v-0.226h0.282v-0.226h0.226v-0.452h0.226v-0.282h0.226v-0.226h0.226v-0.226h0.282v-0.226h0.452v-0.226h0.226v-0.282h0.226v-0.226h0.452v-0.226h0.508v-0.226h0.452v-0.226h0.734v-0.226l0.903 -0.056v-0.169c0.251 -0.063 0.495 -0.063 0.752 -0.06l0.127 0.001q0.154 0.001 0.307 0.003z" fill="#6CE9C5"/><path d="M64.245 47.083h2.597v0.226h0.734v0.226h0.226v0.282h0.226v0.226h0.226v0.226h0.226v0.226h0.282v0.452l0.226 0.056v0.452h0.226v9.654h-0.226v0.677h-0.282v0.226h-0.226v0.282h-0.226v0.226h-0.226v0.226h-0.226v0.226h-0.226v0.226h-0.734v0.226h-2.371v-0.226h-0.452v-0.226h-0.226v-0.226h-0.452v-0.282h-0.226v-0.169h-0.282v-0.508h-0.226v-0.677h-0.226v-0.508h-0.226V49.68h0.226v-0.734h0.226v-0.452h0.226v-0.226h0.282v-0.226h0.226v-0.226h0.226v-0.226l0.452 -0.056v-0.226h0.226z" fill="#1E295B"/><path d="M80.73 54.422h1.863v0.226h0.452v0.226h0.508v0.226h0.226v0.226h0.452v0.226h0.282v0.452h0.226v0.508h0.226v2.597h-0.226v0.452h-0.226v0.226h-0.226l-0.056 0.452h-0.226v0.226h-0.226v0.282h-0.452v0.226h-0.226v0.226h-0.226v0.226h-0.282v0.226h-0.226v0.282h-0.226v0.226h-0.452v0.226h-0.282v0.226h-0.226v0.226h-0.226v0.226h-0.226v0.282h-0.452v0.226h-0.282v0.226h-0.226v0.226h-0.226v0.226h-0.226v0.226l-0.452 0.056v0.226h-0.226v0.226h-0.282v0.226h-0.226v0.226h-0.226v0.226h-0.452v0.226l-0.508 0.056v0.226h-2.089v-0.226h-0.734v-0.282h-0.226v-0.226h-0.452v-0.226h-0.226l-0.056 -0.452h-0.226v-0.282h-0.169l-0.056 -0.452h-0.226v-2.597h0.226v-0.452h0.282v-0.226h0.226v-0.452h0.226v-0.282h0.452v-0.226h0.226v-0.226h0.226v-0.226h0.282v-0.226h0.226v-0.226l0.452 -0.056v-0.226h0.226v-0.226h0.226v-0.226h0.282v-0.226h0.226v-0.226h0.226v-0.226l0.452 -0.056v-0.226h0.226v-0.226h0.282v-0.226h0.226v-0.226h0.226v-0.226h0.226v-0.282h0.226v-0.226h0.452v-0.226h0.282v-0.226h0.226v-0.226h0.226v-0.226l0.452 -0.056 0.056 -0.169c0.208 -0.091 0.456 -0.06 0.677 -0.056z" fill="#1E295B"/><path d="M50.866 55.551h1.411v0.226h0.734v0.226h0.452v0.282h0.226v0.226h0.226v0.226h0.226v0.226h0.508v0.226h0.226v0.226h0.226v0.282h0.226v0.226h0.452v0.226h0.226v0.226h0.282v0.226h0.226v0.226h0.226v0.282h0.452v0.226h0.226v0.226h0.282v0.226h0.226v0.226h0.226v0.226h0.226v0.282h0.226v0.226h0.282v0.226h0.226v0.677h0.226v2.145h-0.226l0.004 0.212c0 0.165 -0.008 0.308 -0.06 0.466h-0.169v0.282h-0.226v0.226h-0.282v0.226h-0.226v0.226h-0.226v0.282h-0.226v0.226h-0.508v0.226h-2.371v-0.226h-0.452v-0.226l-0.452 -0.056v-0.226h-0.226v-0.226h-0.226v-0.226h-0.282v-0.226h-0.452v-0.282h-0.226v-0.226h-0.226v-0.226h-0.226v-0.226h-0.282v-0.226h-0.452v-0.226h-0.226v-0.282h-0.226v-0.226h-0.226v-0.226h-0.508v-0.226h-0.226v-0.226h-0.226v-0.226h-0.226v-0.226h-0.226v-0.282h-0.226v-0.226h-0.282v-0.452h-0.226v-0.508h-0.226v-2.315h0.226v-0.734h0.226v-0.226h0.226v-0.226h0.282v-0.226h0.226v-0.226h0.452v-0.226h0.226v-0.282h0.734z" fill="#1E295B"/><path d="M62.382 49.454h0.226v9.371h-0.226v-0.226h-0.226V49.68h0.226z" fill="#113153"/><path d="M68.988 48.72h0.226v0.452h0.226v9.428l-0.226 0.056V49.454h-0.226z" fill="#83D6D0"/><path d="M60.971 102.352h0.734v0.226h1.581v0.056h-0.452v0.169h1.411l0.056 0.226h4.403v-0.169c0.547 -0.053 1.088 -0.063 1.637 -0.056v-0.169l-0.169 -0.056h1.411v-0.226h0.452l-0.226 0.056v0.226h-0.96v0.226h-1.186v0.226h-1.186v0.226h-3.274v-0.226h-1.411v-0.226h-1.411v-0.226h-0.96v-0.226h-0.452z" fill="#16495B"/><path d="M62.157 49.68h0.226v8.92h-0.226z" fill="#3B8386"/><path d="M69.044 50.188h0.113c0.058 2.804 0.101 5.608 0 8.412h-0.169a18.799 18.799 0 0 1 -0.065 -1.561l-0.001 -0.22a253.312 253.312 0 0 1 -0.001 -0.588q0 -0.184 0 -0.368 -0.001 -0.643 -0.001 -1.287 0 -0.599 -0.001 -1.198 -0.001 -0.516 -0.001 -1.032 0 -0.307 -0.001 -0.615c-0.001 -0.228 0 -0.455 0 -0.683 0 -0.068 -0.001 -0.136 -0.001 -0.205l0.001 -0.187 0 -0.163C68.931 50.358 68.931 50.358 69.044 50.188" fill="#0C3B51"/><path d="M75.311 81.182h0.282v0.452h0.226v1.016h0.169c0.06 0.195 0.062 0.375 0.06 0.579l-0.002 0.184L76.044 83.553h0.226v4.46h-0.226v1.186h-0.226v0.452h-0.056v-0.903h0.226v-5.645h-0.226v-0.96h-0.226v-0.734h-0.226z" fill="#81D4CD"/><path d="m82.593 80.73 0.056 0.226h0.169c0.044 0.157 0.063 0.295 0.062 0.458l-0.001 0.129 -0.001 0.133 -0.001 0.136q-0.001 0.165 -0.003 0.33h0.169c0.064 0.204 0.063 0.394 0.062 0.606l-0.001 0.222 -0.001 0.231q0 0.117 -0.001 0.234 -0.001 0.285 -0.003 0.571h0.226v4.008h-0.226v1.186h-0.226v-0.452h0.169v-5.702h-0.169c-0.052 -0.351 -0.063 -0.69 -0.06 -1.044l0.001 -0.157q0.001 -0.19 0.003 -0.379h-0.169c-0.062 -0.249 -0.061 -0.479 -0.056 -0.734" fill="#25586C"/><path d="M57.64 81.408h0.282v0.282h-0.226v0.677h-0.226l0.002 0.202 0.002 0.264 0.001 0.133 0.001 0.129 0.001 0.118c-0.007 0.119 -0.03 0.225 -0.063 0.34h-0.169v4.912l0.226 0.056v0.903h0.226v0.508h-0.056v-0.282h-0.226v-0.677h-0.169c-0.057 -0.189 -0.063 -0.36 -0.062 -0.557l0.001 -0.191 0.001 -0.198 0.001 -0.201q0.001 -0.245 0.003 -0.491h-0.226v-3.105h0.226l-0.002 -0.19 -0.002 -0.248 -0.001 -0.125c-0.001 -0.199 0.008 -0.375 0.061 -0.567h0.169l-0.002 -0.202 -0.002 -0.264 -0.001 -0.133 -0.001 -0.129 -0.001 -0.118c0.007 -0.119 0.03 -0.225 0.063 -0.34h0.169z" fill="#4F929C"/><path d="M68.705 59.785h0.056v0.452l-0.226 0.056 -0.056 0.452 -0.169 0.056 -0.056 0.395 -0.395 0.056 -0.056 0.169c-0.251 0.063 -0.495 0.063 -0.752 0.06l-0.127 -0.001q-0.154 -0.001 -0.307 -0.003v0.169c-0.189 0.057 -0.36 0.063 -0.557 0.062l-0.191 -0.001 -0.198 -0.001 -0.201 -0.001q-0.245 -0.001 -0.491 -0.003v-0.226l-0.226 -0.056h2.089v-0.226h0.734v-0.226h0.226v-0.226h0.226v-0.226h0.226v-0.226h0.226v-0.282h0.226z" fill="#71C8C5"/><path d="M52.051 64.302h0.226v0.169h0.452v0.282h0.452v0.226h0.282v0.226h0.226v0.226h0.226v0.226l0.452 0.056v0.226h0.452v0.226h-0.903v-0.226h-0.226v-0.282h-0.226v-0.226h-0.734v-0.452h-0.226v-0.226h-0.226v-0.226h-0.226z" fill="#73DCCA"/><path d="m51.543 93.207 0.056 0.226h0.226v0.677l0.226 0.056v0.226h0.226v-0.903l0.226 -0.056v1.411h0.226l0.056 0.677 0.395 0.056c0.048 0.207 0.063 0.398 0.06 0.61l-0.002 0.167L53.237 96.481h0.226v0.226h0.226v0.282h-0.282v-0.282h-0.226v-0.452h-0.226v-0.226h-0.226v-0.508h-0.226v-0.452h-0.226v-0.452h-0.282v-0.282h-0.169c-0.054 -0.163 -0.062 -0.265 -0.06 -0.434l0.002 -0.138L51.769 93.658h-0.226z" fill="#193656"/><path d="M76.948 65.431h0.96v0.226h-0.452v0.226l-0.508 0.056v0.226h-2.089v-0.226h-0.734v-0.282h0.282v0.226h1.863l0.056 -0.226h0.621z" fill="#143958"/><path d="M65.713 68.536h2.089v0.169h2.089v0.226h0.282v0.056h-0.96v-0.226l-4.629 0.056 -0.056 0.169h-1.694v-0.056h0.734v-0.169c0.476 -0.048 0.947 -0.064 1.425 -0.06l0.195 0.001q0.234 0.001 0.469 0.003z" fill="#2E6775"/><path d="M71.076 69.213h0.452v0.226h0.734v0.226h0.734v0.226h0.677v0.226h0.452l0.056 0.226h0.452v0.282h-0.282v-0.226h-0.452v-0.226h-0.677l0.169 -0.056v-0.169l-0.225 0.002 -0.294 0.002 -0.148 0.001c-0.237 0.001 -0.457 -0.001 -0.688 -0.061v-0.226h-1.186v-0.226h0.226z" fill="#193C5C"/><path d="M74.407 101.167h0.452l-0.226 0.056v0.226h-0.508v0.226h-0.452v0.226h-0.734v0.226h-0.677v0.226h-0.508v-0.226h0.282v-0.226h0.452v-0.226q0.176 -0.016 0.353 -0.032l0.198 -0.018c0.155 -0.006 0.263 0.001 0.408 0.05v-0.226c0.195 -0.06 0.375 -0.062 0.579 -0.06l0.184 0.002 0.14 0.002z" fill="#143B58"/><path d="M83.327 83.553h0.226v3.782l-0.226 0.056z" fill="#79E0CD"/><path d="M64.302 46.632h2.54v0.226c-0.205 0.066 -0.392 0.058 -0.606 0.05l-0.222 -0.008 -0.231 -0.01 -0.234 -0.009q-0.285 -0.011 -0.571 -0.023v0.226h-0.734v0.226h-0.226v-0.452h0.226z" fill="#77E3D2"/><path d="M57.414 71.076h0.282v0.282h-0.452v0.169h-0.282v0.282h-0.452v0.226h-0.226v0.226h-0.282v0.226h-0.226v0.226h-0.226v0.226h-0.226v-0.677h0.452v-0.226h0.226v-0.226c0.169 -0.049 0.318 -0.063 0.494 -0.06l0.137 0.002 0.103 0.002v-0.452h0.677z" fill="#76CAC2"/><path d="M79.77 74.859h0.452v0.226h0.282v0.226h0.226v0.226h0.226q0.016 0.192 0.032 0.385l0.018 0.216C81.012 76.327 81.012 76.327 80.956 76.496h-0.226v-0.226h-0.226v-0.508h-0.226v-0.226h-0.226l-0.056 -0.452h-0.226z" fill="#75D2C9"/><path d="M84.964 57.189h0.226v2.597h-0.677v-0.226h0.226v-0.452h0.226z" fill="#72D8C6"/><path d="M51.091 90.836h0.226v1.411h0.226c0.055 0.335 0.05 0.625 0 0.96h-0.226v-0.734h-0.226v-0.677h-0.226v-0.734h0.226z" fill="#1D3A5F"/><path d="M62.834 102.86h0.96v0.226h1.411v0.226h-2.371z" fill="#78DED0"/><path d="M50.358 82.142h0.056q0.002 0.226 0.004 0.452l0.001 0.127c0.001 0.283 -0.021 0.553 -0.061 0.832h-0.169v4.686h0.226v1.637l0.226 0.056v0.452l-0.056 -0.226h-0.169c-0.051 -0.173 -0.063 -0.327 -0.062 -0.507l0.001 -0.16 0.001 -0.166 0.001 -0.168q0.001 -0.205 0.003 -0.41h-0.169c-0.071 -0.275 -0.064 -0.545 -0.063 -0.827v-0.165c0 -0.18 0.001 -0.36 0.001 -0.54l0 -0.375q0 -0.493 0.001 -0.985 0.001 -0.503 0.001 -1.006 0.001 -0.986 0.003 -1.973l0.226 -0.056z" fill="#356D7F"/><path d="M48.946 56.285h0.226v0.226h-0.169l-0.056 0.452h-0.226v0.226h-0.226v0.734h-0.226v0.226h-0.226v-0.903l0.226 -0.056v-0.452h0.452v-0.226h0.226z" fill="#7ADACF"/><path d="M80.504 54.366h3.049v0.452l0.222 -0.004A3.331 3.331 0 0 1 84.005 54.817c0.056 0.056 0.056 0.056 0.062 0.161L84.061 55.326h-0.282v-0.226h-0.226v-0.226h-0.508v-0.226h-0.452v-0.226h-1.863v0.169h-0.226z" fill="#75E4D0"/><path d="M69.213 55.326h0.226v3.274l-0.226 0.056z" fill="#73C0C0"/><path d="M65.205 103.086h3.274v0.226h-3.274z" fill="#4F8E94"/><path d="m82.819 88.239 0.056 0.226h0.169v0.282h-0.169l0.001 0.102q0.002 0.231 0.003 0.463l0.001 0.16c0.001 0.31 -0.016 0.606 -0.061 0.913h-0.169l-0.056 0.903h-0.226v-1.863h0.226v0.452h0.226z" fill="#163D5D"/><path d="M50.866 55.551h1.411v0.226h0.734v0.226h0.452v0.282h-0.282v-0.226l-0.452 -0.056v-0.169h-2.371v0.169h-0.226v-0.226h0.734z" fill="#285D71"/><path d="M70.173 95.07h1.129v0.226l-0.452 0.056v0.169l-0.452 0.056v0.226h-0.96v0.226h-0.226v-0.282h0.734v-0.169l0.169 -0.056z" fill="#75DAC9"/><path d="M57.189 84.287h0.056v4.178l0.226 0.056v0.903h0.226v0.508h-0.056v-0.282h-0.226v-0.677h-0.169c-0.046 -0.161 -0.063 -0.302 -0.063 -0.469v-0.144l0.001 -0.154 0 -0.159c0 -0.167 0.001 -0.334 0.002 -0.5q0 -0.17 0.001 -0.34 0.001 -0.416 0.003 -0.832l-0.169 0.056v-1.016h0.169z" fill="#66BBB7"/><path d="M65.431 75.593h2.371v0.169h0.452v0.056l-0.191 -0.001c-1.161 -0.005 -2.319 -0.009 -3.479 0.057l-0.056 0.113 0.113 0.056h-0.621l0.226 -0.056v-0.169c0.251 -0.063 0.495 -0.063 0.752 -0.06l0.127 0.001q0.154 0.001 0.307 0.003z" fill="#62BEB3"/><path d="M50.188 84.061h0.169v3.726h-0.169z" fill="#0F3254"/><path d="M83.101 84.005h0.226v4.008h-0.226v-1.411h0.169v-1.637h-0.169z" fill="#459093"/><path d="M66.617 60.971h0.677v0.226h-0.452v0.226h-2.089v-0.226h1.863z" fill="#123856"/><path d="M48.495 57.414h0.282l-0.056 0.282h-0.169l0.001 0.221q0.001 0.405 0.002 0.81 0 0.175 0.001 0.351c0.001 0.168 0.001 0.336 0.001 0.504l0.001 0.159v0.147l0 0.13C48.551 60.124 48.551 60.124 48.495 60.237h-0.226v-2.315h0.226z" fill="#103550"/><path d="M49.906 84.513h0.226v2.766h-0.226z" fill="#5EB9AF"/><path d="M67.576 47.817h0.452v0.226h0.226v0.226h0.226l0.056 0.452h0.169v0.508l0.113 0.056 -0.056 0.339 -0.056 -0.169h-0.169l-0.056 -0.452h-0.226v-0.508h-0.226v-0.226h-0.226v-0.226h-0.226z" fill="#0E3853"/><path d="M75.311 81.182h0.282v0.452h0.226v1.016h0.169c0.06 0.195 0.062 0.375 0.06 0.579l-0.002 0.184L76.044 83.553h0.226v0.96l-0.056 -0.226h-0.226v-1.186h-0.226v-0.96h-0.226v-0.734h-0.226z" fill="#54A5A0"/><path d="M64.245 47.083h2.597v0.226h0.734v0.226h0.226v0.226h-0.226v-0.169h-0.282v-0.226h-0.452v0.169h-0.226v-0.395h-1.863v0.226l-0.191 0.018L64.358 47.422l-0.113 0.169c-0.11 0.017 -0.11 0.017 -0.233 0.011L63.794 47.591l0.226 -0.056v-0.226h0.226z" fill="#185061"/><path d="M62.608 95.521q0.122 -0.002 0.243 -0.004l0.137 -0.002C63.116 95.521 63.116 95.521 63.286 95.578v0.169l0.19 -0.002c0.449 -0.003 0.888 0.002 1.334 0.058l-0.056 0.169h0.452v0.282h-0.734v-0.226h-0.903v-0.226h-0.452l-0.056 -0.226h-0.452z" fill="#75C9C5"/><path d="M50.414 55.834h2.315v0.169l0.452 0.056v0.226h-0.452v-0.226l-0.194 0.014 -0.258 0.017 -0.127 0.01c-0.247 0.016 -0.475 0.01 -0.72 -0.026 -0.197 -0.027 -0.395 -0.036 -0.593 -0.047l-0.124 -0.007A138.37 138.37 0 0 0 50.414 56.003z" fill="#0D3454"/><path d="M64.641 47.535v0.056l-0.339 0.056 -0.056 0.169 -0.395 0.056 -0.056 0.621h-0.677v-0.452h0.226v-0.226h0.226v-0.226c0.358 -0.033 0.713 -0.065 1.073 -0.056" fill="#133D56"/><path d="M74.633 100.489h0.903v0.226h-0.226v0.226h-0.452v0.226l-0.452 0.056 -0.056 0.169h-0.452v-0.226h0.452v-0.226h0.282z" fill="#153755"/><path d="M80.053 54.648h0.677c0.056 0.282 0.056 0.282 0 0.677h-0.96l0.056 -0.452 0.169 -0.056z" fill="#1C2A54"/><path d="M80.956 62.382h0.452v0.226h-0.226v0.226h-0.226v0.226h-0.226v0.282l-0.452 -0.056a51.938 51.938 0 0 1 -0.004 -0.307l-0.002 -0.173C80.279 62.665 80.279 62.665 80.335 62.608c0.105 -0.004 0.209 -0.005 0.314 -0.004l0.173 0.002 0.134 0.002z" fill="#1C405D"/><path d="M80.956 54.422h1.637v0.226h0.452v0.226h-0.903v-0.226l-0.202 0.002 -0.264 0.002 -0.133 0.001 -0.129 0.001 -0.118 0.001c-0.119 -0.007 -0.225 -0.03 -0.34 -0.063z" fill="#133055"/><path d="M50.188 62.157h0.452v0.226h0.677v0.226h-0.226v0.226h0.226l0.056 0.339 -0.508 -0.113v-0.226h-0.226v-0.226h-0.282v-0.226h-0.169z" fill="#142C55"/><path d="M57.697 59.785h0.226v0.226h0.226v0.226h0.226v0.282h0.226v0.226h0.226v0.452h-0.226v-0.226l-0.452 0.056v-0.734l-0.452 -0.056z" fill="#163253"/><path d="M50.64 55.326h1.637v0.226h-1.411v0.226h-0.734v-0.226h0.508z" fill="#81DDD0"/><path d="M53.688 97.441h0.452v0.226h0.226v0.226h0.226v0.226h0.282v0.282h0.226v0.226h-0.282v-0.226l-0.226 -0.056v-0.169h-0.226v-0.226c-0.176 0.036 -0.176 0.036 -0.226 0.169h-0.226v-0.226h-0.226z" fill="#6DCFC2"/><path d="M53.18 75.311h0.056c0.007 0.325 0.007 0.325 -0.056 0.452h-0.169l-0.056 0.508h-0.169l-0.056 0.677 -0.169 0.056c-0.041 0.114 -0.041 0.114 -0.056 0.226h-0.226v0.169h-0.226v-0.226h0.226v-0.452h0.226v-0.452h0.226v-0.452h0.226v-0.282h0.226z" fill="#184358"/><path d="M80.053 75.536h0.226v0.226h0.226v0.508h0.226v0.226h0.226v0.508l-0.226 0.056v-0.339h-0.226v-0.226h-0.226l-0.056 -0.452 -0.169 -0.056a9.992 9.992 0 0 1 -0.056 -0.395z" fill="#1A425C"/><path d="M62.834 48.269h0.282c0.009 0.523 0.009 0.523 -0.056 0.677l-0.169 0.113c-0.042 0.201 -0.042 0.201 -0.056 0.395 -0.19 0.061 -0.243 0.052 -0.452 0v-0.508h0.226v-0.452h0.226z" fill="#133352"/><path d="M62.834 60.011h0.96v0.734h-0.452v-0.282h-0.226v-0.169h-0.282z" fill="#14435A"/><path d="m52.503 95.295 0.282 0.056v0.169l0.395 0.056c0.048 0.207 0.063 0.398 0.06 0.61l-0.002 0.167L53.237 96.481h0.226v0.226h0.226v0.282h-0.282v-0.282h-0.226v-0.452h-0.226v-0.226h-0.226v-0.508h-0.226z" fill="#27576B"/><path d="M49.003 61.705h0.169v0.226h0.508v0.226h0.226v0.226h0.226v0.226h0.226v0.226h-0.452v-0.226h-0.226v-0.226h-0.226v-0.226h-0.452z" fill="#77D9CC"/><path d="M64.697 75.536q0.69 -0.002 1.379 -0.003 0.32 0 0.641 -0.001 0.309 -0.001 0.618 -0.001 0.118 0 0.236 -0.001c0.11 0 0.22 0 0.33 -0.001l0.19 0c0.14 0.006 0.255 0.023 0.388 0.063v0.169h0.734v0.056q-0.226 0.002 -0.452 0.004l-0.127 0.001c-0.283 0.001 -0.553 -0.021 -0.832 -0.061v-0.169h-2.371v0.169h-0.734z" fill="#41888B"/><path d="M58.656 64.753h0.226v0.677l-0.226 0.056 -0.056 0.169h-0.677v-0.226h0.226v-0.226h0.226v-0.226h0.282z" fill="#6CC4BD"/><path d="M80.956 77.23h0.226v0.226h0.226l0.056 0.452h0.226v0.452h0.226v0.508l-0.056 -0.226h-0.226v-0.508h-0.395l-0.056 -0.226h-0.226z" fill="#163B57"/><path d="M73.222 60.294h0.452v0.452h-0.226v0.226h-0.226v0.226h-0.226v0.508h-0.226v-0.508h0.169l0.056 -0.452h0.226z" fill="#0D3450"/><path d="M65.713 96.029h2.089v0.226h-2.089z" fill="#7DDECC"/><path d="M72.488 93.432h0.226v0.226h0.452v0.226h-0.226v0.226l-0.677 0.056v0.452h-0.226v-0.508h0.226v-0.169h0.226z" fill="#77E2CC"/><path d="M50.866 79.77h0.226v1.637h-0.226v-0.226h-0.226v-0.452h0.226z" fill="#133251"/><path d="M84.738 56.737h0.226v2.089h-0.226z" fill="#0F354D"/><path d="M64.697 68.48q0.64 -0.002 1.279 -0.003 0.297 0 0.594 -0.001 0.342 -0.001 0.684 -0.001l0.214 -0.001c0.342 0 0.672 0.01 1.011 0.063v0.169h-0.677v-0.169l-2.089 0.056 -0.056 0.113h-0.96z" fill="#61ACAC"/><path d="M54.14 65.657h0.452v0.226l0.508 0.056v0.169h1.637v-0.226h0.734v-0.226h0.452l-0.226 0.056v0.226h-0.508v0.226h-2.371v-0.226h-0.452v-0.226z" fill="#40868B"/><path d="M72.488 61.931h0.282c0.012 1.355 0.012 1.355 -0.056 1.863h-0.226z" fill="#123A50"/><path d="M50.358 83.101h0.056v5.137h-0.226v-0.452h0.169v-3.726h-0.169v-0.508h0.169z" fill="#182E59"/><path d="M57.697 71.076h0.452v0.226h-0.226v0.282h-0.226l-0.056 0.226h-0.677v-0.282h0.282v-0.169h0.452z" fill="#103251"/><path d="M54.422 56.963h0.226v0.226h0.226v0.226h0.226v0.282h0.226v0.226h0.452v0.226h-0.677v-0.226h-0.226v-0.452h-0.282v-0.282h-0.169z" fill="#163F5A"/><path d="M54.366 56.511h0.282v0.226h0.226v0.226h0.226v0.226h0.226v0.226h0.226v0.226h-0.226v-0.169l-0.452 -0.056v-0.226h-0.226v-0.226h-0.282z" fill="#78D5CB"/><path d="M53.463 64.979h0.452v0.226h0.226v0.226h0.508v0.226h0.226v0.226h-0.282v-0.226h-0.677v-0.226h-0.226v-0.226h-0.226z" fill="#174658"/><path d="M48.043 60.011h0.226v0.226h0.226v0.508h0.226v0.226h-0.677z" fill="#72D0C3"/><path d="M71.585 102.352h0.452l-0.226 0.056v0.226h-0.96v0.226h-1.186v0.226h-0.452v-0.226c0.231 -0.065 0.453 -0.063 0.692 -0.06l0.127 0.001q0.155 0.001 0.31 0.003v-0.169l-0.169 -0.056h1.411z" fill="#2A5E70"/><path d="m56.003 98.852 0.113 0.056 -0.056 0.169h0.452v0.226h0.226v0.452h-0.452v-0.226h-0.226v-0.226h-0.226v-0.226h0.169z" fill="#163655"/><path d="M58.6 79.093h0.226v0.452h-0.226v0.452h-0.226v0.282h-0.226v-0.734h0.226v-0.226h0.226z" fill="#0E3755"/><path d="m58.826 60.745 0.056 0.226h0.226v0.677h0.226v2.145h-0.226v-0.226h0.169v-1.637h-0.226v-0.452l-0.113 0.056a6.154 6.154 0 0 0 -0.056 0.395h-0.056z" fill="#19435E"/><path d="M68.028 59.56h0.677v0.452h-0.226v0.282h-0.226v0.169h-0.226v-0.395l0.226 -0.056v-0.226h-0.226z" fill="#15314E"/><path d="M51.825 63.568h0.452v0.226h0.452v0.677h-0.226v-0.226h-0.226v-0.226h-0.226v-0.226h-0.226z" fill="#14445B"/><path d="M61.931 95.07h0.226v0.226h0.452v0.282h0.452l0.056 0.226h-0.734v-0.226c-0.096 0.002 -0.096 0.002 -0.194 0.004C61.987 95.578 61.987 95.578 61.931 95.521c-0.008 -0.151 -0.002 -0.301 0 -0.452" fill="#123E52"/><path d="M60.237 69.665h0.282v0.282l-0.109 0.021 -0.116 0.035 -0.056 0.113h-0.169v0.282h-0.734v-0.282h0.452v-0.226h0.452z" fill="#0E3D54"/><path d="M57.922 64.979h0.452v0.226h-0.226v0.226h-0.226v0.226h-0.452v0.226h-0.282v-0.226h0.226v-0.226h0.282v-0.226h0.226z" fill="#0C354B"/><path d="M79.996 63.568h0.282v0.677l-0.191 0.025c-0.195 0.02 -0.195 0.02 -0.318 0.088 -0.152 -0.009 -0.301 -0.035 -0.452 -0.056l0.226 -0.056v-0.226h0.226v-0.226h0.226z" fill="#78E1D0"/><path d="M51.825 93.432h0.452v0.96h-0.226l-0.018 -0.109L51.995 94.166l-0.169 -0.056z" fill="#142F52"/><path d="m58.191 65.653 0.137 0.002 0.103 0.002 -0.056 0.226h-0.226v0.282h-0.903v-0.226h0.452v-0.226c0.169 -0.049 0.318 -0.063 0.494 -0.06" fill="#78E0D0"/><path d="M56.511 99.812h0.226v0.169h0.677l0.056 0.282h0.226v0.226h-0.508v-0.226h-0.452v-0.226h-0.226z" fill="#163957"/><path d="M54.592 98.4h0.226v0.226h0.282v0.226h0.226v0.226h0.226v0.226h-0.452v-0.226h-0.226v-0.226h-0.282z" fill="#78E3CE"/><path d="M72.714 69.665h0.282v0.226h0.677v0.226h0.452l0.056 0.226h0.452v0.282h-0.282v-0.226h-0.452v-0.226h-0.677l0.169 -0.056v-0.169h-0.677z" fill="#307078"/><path d="M60.519 69.213h0.903v0.226h-0.452v0.226h-0.734v-0.226h0.282z" fill="#75D4C7"/><path d="M76.496 71.754q0.12 -0.002 0.24 -0.004l0.135 -0.002c0.128 0.005 0.236 0.026 0.359 0.062v0.226h0.452v0.226h-0.226v0.226h-0.226v-0.226h-0.282v-0.226h-0.226v-0.226z" fill="#6BBFB9"/><path d="M65.713 68.536h2.089v0.169h-2.145z" fill="#528F99"/><path d="M57.697 100.997h0.452v0.169l0.452 0.056v0.226h0.452v0.226h-0.677v-0.226h-0.226v-0.226l-0.452 -0.056z" fill="#81DDD2"/><path d="M82.593 90.61h0.056c0.002 0.193 0.003 0.386 0.004 0.579l0.001 0.166 0.001 0.16 0.001 0.147c-0.006 0.13 -0.02 0.238 -0.063 0.36l-0.113 0.056c-0.039 0.107 -0.039 0.107 -0.064 0.229l-0.029 0.125L82.367 92.529l-0.226 0.056v-0.565h0.226v-0.734h0.226z" fill="#6CC2BF"/><path d="M74.859 91.061h0.226v0.508h-0.226v0.452h-0.226v0.226h-0.226v-0.226h0.169l-0.007 -0.208c-0.001 -0.199 0.03 -0.345 0.12 -0.526h0.169z" fill="#70BFBC"/><path d="M77.456 72.262h0.452v0.226h0.452v0.452h-0.452v-0.226h-0.226v-0.226h-0.226z" fill="#75DFCB"/><path d="M68.988 49.454h0.226v4.008h-0.056v-3.274l-0.169 0.056z" fill="#185460"/><path d="M64.753 47.14h1.863v0.226h-1.863z" fill="#08374E"/><path d="M74.125 65.657h0.282v0.226h0.677v0.226h1.637v-0.226h0.508v0.056h-0.282v0.226h-2.089v-0.226h-0.734z" fill="#387B83"/><path d="M69.157 56.511h0.056v2.597h-0.226v0.677h-0.226v-0.226h0.169v-0.96h0.226z" fill="#16485C"/><path d="M74.407 101.167h0.452l-0.226 0.056v0.226h-0.508v0.226h-0.452v0.226h-0.226v-0.452c0.195 -0.06 0.375 -0.062 0.579 -0.06l0.184 0.002 0.14 0.002z" fill="#295D6B"/><path d="M52.277 95.295h0.226v0.226h0.226v0.508h-0.226v0.226h-0.226z" fill="#74DBCB"/><path d="M84.738 56.003h0.452v0.96h-0.226v-0.452h-0.226z" fill="#70D4C5"/><path d="M77.23 99.304h0.226v0.282h-0.226v0.226l-0.169 0.056c-0.069 0.198 -0.069 0.198 -0.113 0.395h-0.452v-0.226h0.226v-0.282h0.226v-0.226h0.282z" fill="#72D2C7"/><path d="M48.099 57.189h0.169v0.226h0.226v0.508h-0.226v0.226h-0.226a106.699 106.699 0 0 1 -0.004 -0.448l-0.001 -0.129c-0.001 -0.109 0.002 -0.217 0.005 -0.326z" fill="#77E1CA"/><path d="m77.158 56.506 0.189 0.002 0.189 0.002 0.146 0.002v0.226h-0.226v0.226h-0.282v0.226h-0.226a51.938 51.938 0 0 1 -0.004 -0.307l-0.002 -0.173c0.008 -0.198 0.017 -0.196 0.216 -0.203" fill="#73C5C3"/><path d="M60.971 102.352h0.734v0.226h1.581v0.056h-0.452v0.169h0.508v0.056h-0.96v-0.226h-0.96v-0.226h-0.452z" fill="#2F6273"/><path d="M59.052 61.931h0.226v1.637h-0.226z" fill="#0B3B4B"/><path d="M76.214 87.335h0.056v0.677h-0.226v1.186h-0.226v0.452h-0.056v-0.903h0.226l-0.002 -0.202q-0.001 -0.132 -0.002 -0.264l-0.001 -0.133 -0.001 -0.129 -0.001 -0.118c0.007 -0.119 0.03 -0.225 0.063 -0.34h0.169z" fill="#54959A"/><path d="M49.454 56.285h0.282l-0.056 0.677 -0.191 0.018L49.285 57.019l-0.113 0.169h-0.169v-0.226h0.169l0.056 -0.452h0.226z" fill="#132F55"/><path d="M51.091 78.585h0.226v0.508h-0.226v0.677h-0.226v-0.903h0.226z" fill="#7CD7CF"/><path d="M61.648 76.722h0.226v0.226l-0.113 0.113v0.169l-0.282 0.056 -0.056 0.169h-0.452v-0.282h0.226v-0.226h0.452z" fill="#7AD5CA"/><path d="M79.319 64.471v0.734h-0.452v-0.677c0.226 -0.056 0.226 -0.056 0.452 -0.056" fill="#6EE3C8"/><path d="M48.043 58.374h0.226v1.411h-0.226z" fill="#428F8F"/><path d="M53.18 56.285h0.508v0.226h0.226v0.226h0.226v0.226h-0.452v-0.226h-0.226v-0.226h-0.282z" fill="#0D3951"/><path d="M75.085 91.344h0.226v0.677h-0.226v0.226h-0.226v-0.677h0.226z" fill="#163955"/><path d="M79.319 74.633h0.226v0.226h0.226v0.226h0.226v0.452h-0.226v-0.226h-0.226v-0.226h-0.226z" fill="#15425A"/><path d="M53.914 73.448h0.226v0.226h0.226v0.452h-0.226v0.226h-0.226z" fill="#6FD2C2"/><path d="M55.1 72.996h0.226v0.677h-0.677v-0.226h0.226v-0.226h0.226z" fill="#26576E"/><path d="M74.633 70.625h0.226v0.226h0.452v0.226h0.226v0.226h-0.452v-0.226h-0.452z" fill="#143A55"/><path d="M71.302 95.07h0.282v0.282h0.169v0.169c-0.379 0.15 -0.73 0.101 -1.129 0.056l0.226 -0.056v-0.169l0.452 -0.056z" fill="#123650"/><path d="M75.762 89.65h0.056v0.508h-0.226l0.002 0.14c0.001 0.061 0.001 0.122 0.002 0.184l0.002 0.183c-0.005 0.145 -0.012 0.261 -0.062 0.396l-0.113 0.056c-0.037 0.114 -0.037 0.114 -0.056 0.226h-0.282v-0.282h0.226v-0.452h0.226v-0.677h0.226z" fill="#1B4D5F"/><path d="M59.785 77.682h0.226v0.452h-0.226v0.226h-0.226v0.226h-0.226v-0.395l0.226 -0.056v-0.226h0.226z" fill="#113253"/><path d="M73.673 59.334h0.452v0.452h-0.226v0.226h-0.226v-0.226h-0.226l0.056 -0.226h0.169z" fill="#6EC8BD"/><path d="M60.971 94.844h0.677v0.226h0.282v0.282c-0.191 0.048 -0.32 0.063 -0.508 0v-0.282h-0.452z" fill="#1D4C62"/><path d="M72.939 77.907h0.282v0.226h0.226v0.226h0.226v0.226h0.226v0.226h-0.226v-0.169l-0.099 0.035c-0.127 0.021 -0.127 0.021 -0.25 -0.004 -0.126 -0.109 -0.124 -0.159 -0.145 -0.321L73.165 78.133h-0.226z" fill="#76C5C2"/><path d="m76.722 57.414 -0.226 0.056v0.226h-0.226v0.226h-0.226v0.226h-0.282l0.056 -0.452 0.169 -0.056 0.056 -0.169c0.208 -0.091 0.456 -0.06 0.677 -0.056" fill="#73CBC2"/><path d="M80.504 54.366h2.315v0.226l0.508 0.056v0.226h-0.282v-0.226h-0.452v-0.226h-1.863v0.169h-0.226z" fill="#357180"/><path d="m82.593 80.73 0.056 0.226h0.169c0.044 0.157 0.063 0.295 0.062 0.458l-0.001 0.129 -0.001 0.133 -0.001 0.136q-0.001 0.165 -0.003 0.33h0.169c0.049 0.169 0.063 0.318 0.06 0.494l-0.002 0.137L83.101 82.875h-0.056v-0.282h-0.226v-1.129h-0.169c-0.062 -0.249 -0.061 -0.479 -0.056 -0.734" fill="#4C9596"/><path d="M81.238 94.618h0.226l-0.056 0.452h-0.169v0.452l-0.282 0.056v-0.734h0.282z" fill="#77D5C7"/><path d="M51.091 92.247h0.452c0.055 0.335 0.05 0.625 0 0.96h-0.226v-0.734h-0.226z" fill="#184D61"/><path d="M60.519 69.665h0.734l-0.056 0.226h-0.452l-0.056 0.282 -0.621 0.056v-0.113h0.169l0.056 -0.169h0.226z" fill="#123050"/><path d="M59.108 101.393h0.452v0.226l0.103 -0.002 0.137 -0.002 0.135 -0.002c0.128 0.005 0.236 0.026 0.359 0.062v0.226h0.226v0.226h-0.282v-0.226h-0.452v-0.226h-0.452v-0.226z" fill="#174F5B"/><path d="M59.785 93.432h0.508v0.677l0.452 0.056v0.226h-0.282v-0.226h-0.226v-0.226h-0.226v-0.282h-0.226z" fill="#74CCC3"/><path d="M76.044 84.287h0.169c0.05 0.173 0.064 0.327 0.064 0.507l0.001 0.169 0 0.181 0 0.187q0 0.196 0 0.392c0 0.2 0 0.4 0 0.6q0 0.19 0 0.381l0 0.181 -0.001 0.169 0 0.148c-0.007 0.127 -0.028 0.237 -0.064 0.359h-0.169v-0.282h0.169v-2.54h-0.169z" fill="#77C3C1"/><path d="M62.157 76.496h0.734v0.226l-0.452 0.056 -0.056 0.169 -0.452 0.056v-0.282h0.226z" fill="#7BD3CA"/><path d="M82.367 61.705h0.339l-0.056 0.169 0.113 0.056 -0.113 0.056 -0.056 0.169 -0.169 0.056 -0.056 0.169h-0.452v-0.226h0.226v-0.226h0.226z" fill="#7ADCCD"/><path d="M58.374 101.167h0.452l0.056 0.226 0.452 0.056v0.226h-0.226v0.226h-0.508v-0.226h0.452v-0.226h-0.452v-0.226z" fill="#6DCDBF"/><path d="M76.948 65.431h0.96v0.226h-0.452v0.226h-0.282v-0.226h-0.226z" fill="#184460"/><path d="M52.051 64.302h0.226v0.169h0.452v0.282h0.226v0.226h-0.452v-0.226h-0.226v-0.226h-0.226z" fill="#7BDACF"/><path d="M84.287 59.334h0.452v0.226h-0.226v0.226h-0.226l-0.056 0.452h-0.226v-0.452h0.226z" fill="#164458"/><path d="M68.988 48.72h0.226v0.452h0.226v0.508h-0.226v-0.226h-0.226z" fill="#75DCD0"/><path d="M67.068 47.083h0.734v0.226h0.226v0.282l-0.452 -0.056v-0.226h-0.508z" fill="#78D8C8"/><path d="M83.101 84.964h0.169v1.637h-0.169z" fill="#368083"/><path d="m82.173 61.419 0.194 0.004v0.508h-0.226v0.226h-0.226q-0.002 -0.168 -0.004 -0.335l-0.002 -0.189c0.008 -0.233 0.023 -0.209 0.263 -0.214" fill="#255265"/><path d="M48.269 60.971h0.452v0.226h0.226v0.282c-0.235 0.005 -0.449 -0.001 -0.677 -0.056z" fill="#7CE0D1"/><path d="M70.399 95.578h0.677v0.226l-0.621 0.056 -0.056 0.169h-0.508v-0.226h0.508z" fill="#0C3C56"/><path d="M81.916 92.981h0.226v0.677l-0.169 0.056 -0.056 0.113 -0.056 0.113 -0.169 0.056v-0.565h0.226z" fill="#7BD8CC"/><path d="M74.859 80.279h0.226v0.452h0.226v0.282l-0.169 0.056 -0.056 0.113h-0.226z" fill="#70CBC3"/><path d="M78.359 55.777v0.226h-0.226v0.282h-0.226v0.226h-0.226c-0.048 -0.191 -0.063 -0.32 0 -0.508h0.226v-0.169c0.163 -0.047 0.276 -0.056 0.452 -0.056" fill="#78D9CE"/><path d="M68.48 48.043h0.282v0.226h0.169c0.049 0.169 0.063 0.318 0.06 0.494l-0.002 0.137L68.988 49.003l-0.226 -0.056v-0.452h-0.282z" fill="#75D9C8"/><path d="M58.656 91.795h0.226v0.226h0.226v0.226h0.226v0.452h-0.226v-0.226h-0.226l-0.056 -0.452h-0.169z" fill="#7AD8C9"/><path d="M49.906 83.327h0.226v1.186h-0.226z" fill="#7DDDD1"/><path d="M79.77 74.859h0.452v0.226h0.282v0.226h-0.226v0.226h-0.226l-0.056 -0.452h-0.226z" fill="#70CAC0"/><path d="M57.414 71.076h0.282v0.282h-0.452v0.169h-0.282v0.282h-0.226v-0.508h0.677z" fill="#67BEBB"/><path d="M72.262 62.157h0.226v1.186h-0.226z" fill="#509196"/><path d="M59.334 62.157h0.226v1.186h-0.226z" fill="#6FBAB7"/><path d="M84.964 57.189h0.226v1.186h-0.226z" fill="#418686"/><path d="M64.979 46.857h1.186v0.226h-1.186z" fill="#488E95"/><path d="M74.633 58.6h0.226v0.226l0.226 0.056h-0.226v0.226h-0.226v0.226h-0.282v-0.508h0.282z" fill="#77DACB"/><path d="M77.682 99.078h0.452v0.226l-0.395 0.056 -0.056 0.395 -0.452 0.056v-0.226h0.226v-0.282h0.226z" fill="#7CD9CF"/><path d="M81.182 93.432h0.452v0.226h-0.169l0.002 0.103 0.002 0.137 0.002 0.135c-0.005 0.128 -0.026 0.236 -0.062 0.359h-0.226v-0.282h0.226v-0.452h-0.169v0.226h-0.282v-0.226h0.226z" fill="#173455"/><path d="M51.091 92.755h0.226v0.452h0.226v0.452l-0.226 0.056v-0.282h-0.226z" fill="#76D6CB"/><path d="M59.108 79.093h0.226v0.452l-0.169 0.056 -0.056 0.395h-0.226v-0.677h0.226z" fill="#7BD9D0"/><path d="M73.222 69.665h0.677v0.226l0.282 0.056 -0.056 0.169h-0.452v-0.226h-0.452z" fill="#7ADDCC"/><path d="M73.673 101.675h0.452v0.226h-0.226v0.226h-0.677v-0.226h0.452z" fill="#7AE0CE"/><path d="M51.769 77.682h0.056v0.452h-0.226l-0.056 0.508 -0.452 -0.056v-0.226h0.226v-0.226h0.226v-0.226h0.226z" fill="#71D0C5"/><path d="M78.641 73.448h0.452v0.226h0.226v0.452h-0.226v-0.226h-0.226v-0.226h-0.226z" fill="#7BDACD"/><path d="M55.326 72.262h0.452v0.452h-0.226v0.226h-0.226z" fill="#6EC1BF"/><path d="M50.866 63.116h0.226v0.226h0.226v0.226h0.226v0.226h-0.452v-0.226h-0.226z" fill="#7AD9CD"/><path d="M64.753 61.423h1.637l-0.226 0.056v0.169h-0.96v-0.169h-0.452z" fill="#428D91"/><path d="M80.956 54.422h1.186v0.226q-0.233 0.002 -0.466 0.004l-0.133 0.001 -0.129 0.001 -0.118 0.001c-0.119 -0.007 -0.225 -0.03 -0.34 -0.063z" fill="#0F3351"/><path d="M53.688 74.351h0.226v0.282h-0.226v0.226h-0.226v0.452h-0.282v-0.226h-0.169v-0.226h0.226v0.226h0.169l0.056 -0.452 0.169 -0.056c0.041 -0.114 0.041 -0.114 0.056 -0.226" fill="#69C2BF"/><path d="M68.48 68.705h1.411v0.226h0.282v0.056h-0.96v-0.226h-0.734z" fill="#367C82"/><path d="M49.454 61.874q0.122 -0.002 0.243 -0.004l0.137 -0.002C49.962 61.874 49.962 61.874 50.132 61.931l0.056 0.452h0.169v0.226h-0.226v-0.226h-0.226v-0.226h-0.226v-0.226z" fill="#2D6277"/><path d="m57.189 88.239 0.056 0.226 0.226 0.056v0.903h0.226v0.508h-0.056v-0.282h-0.226v-0.677h-0.169c-0.049 -0.169 -0.063 -0.318 -0.06 -0.494l0.002 -0.137z" fill="#4DA1A1"/><path d="M62.834 48.269h0.226v0.226h-0.169v0.452l-0.226 0.056 -0.056 0.226h-0.226v-0.282h0.226v-0.452h0.226z" fill="#306A78"/><path d="M60.519 93.884h0.452v0.226h0.226v0.282h-0.452v-0.226h-0.226z" fill="#76DFD0"/><path d="M58.148 90.836h0.226v0.226h0.226l0.056 0.452 0.169 0.056h-0.452v-0.282h-0.226z" fill="#78D8CA"/><path d="m54.14 74.125 0.226 0.056h-0.169l-0.056 0.903h-0.226v-0.226h-0.226v-0.226h0.226v-0.282h0.226z" fill="#163D5F"/><path d="M81.69 62.157h0.226v0.452h-0.452l-0.021 0.109L81.408 62.834c-0.153 0.076 -0.283 0.06 -0.452 0.056l0.226 -0.056v-0.226h0.226v-0.226h0.282z" fill="#64ABB0"/><path d="M55.1 57.471h0.226v0.169l0.212 -0.004c0.165 0 0.308 0.007 0.466 0.06v0.226h-0.169l-0.056 0.226v-0.226h-0.452v-0.226h-0.226z" fill="#6BBABA"/><path d="M57.245 59.108h0.677v0.226h0.226v0.226h-0.452v-0.226l-0.452 -0.056z" fill="#79E1CA"/><path d="M76.496 99.812h0.226v0.226h-0.226v0.226h-0.452v0.226h-0.226v-0.226l0.169 -0.056v-0.226h0.508z" fill="#1B5264"/><path d="M73.165 93.658h0.056v0.282h-0.226v0.226h-0.226v0.226h-0.282v0.226h-0.226v-0.452c0.225 -0.075 0.443 -0.06 0.677 -0.056v-0.226h0.226z" fill="#5BAAAC"/><path d="M64.245 47.083h0.508v0.282l-0.191 0.018L64.358 47.422l-0.113 0.169c-0.11 0.017 -0.11 0.017 -0.233 0.011L63.794 47.591l0.226 -0.056v-0.226h0.226z" fill="#205261"/><path d="M50.358 82.142h0.056q0.002 0.226 0.004 0.452l0.001 0.127c0.001 0.283 -0.021 0.553 -0.061 0.832h-0.169l-0.056 0.226v-0.903l0.226 -0.056z" fill="#4D8D95"/><path d="M76.044 71.528h0.452v0.282h0.226v0.226h-0.226v0.226h-0.226v-0.677z" fill="#153A57"/><path d="M74.633 92.021h0.226v0.226l-0.169 0.056c-0.041 0.114 -0.041 0.114 -0.056 0.226h-0.226v0.226h-0.226v0.226h-0.282l0.226 -0.056v-0.452h0.282v-0.226h0.226z" fill="#1E5260"/><path d="M57.922 81.182h0.226v0.508l-0.169 0.056 -0.056 0.395 -0.226 0.056v-0.508h0.226z" fill="#77D6CC"/><path d="M50.64 62.608h0.452v0.226h0.226l0.056 0.339 -0.508 -0.113v-0.226h-0.226z" fill="#123E57"/><path d="M66.165 96.255h1.016l-0.056 0.226h-0.96z" fill="#264E6F"/><path d="M61.648 94.844h0.734c0.056 0.282 0.056 0.282 0 0.452h-0.226v-0.226h-0.508z" fill="#78DDCE"/><path d="M75.311 81.182h0.282v0.452h0.226v0.508h-0.282v-0.734h-0.226z" fill="#346A79"/><path d="M57.471 65.657h0.452l-0.226 0.056v0.226h-0.508v0.226h-0.452v-0.282h0.734z" fill="#448C92"/><path d="m66.842 61.423 -0.226 0.056v0.169c-0.189 0.057 -0.36 0.063 -0.557 0.062l-0.191 -0.001 -0.198 -0.001 -0.201 -0.001q-0.245 -0.001 -0.491 -0.003v-0.226h0.226v0.169h0.96v-0.169c0.225 -0.075 0.443 -0.06 0.677 -0.056" fill="#65C0B6"/><path d="M49.68 56.003h0.452l-0.226 0.056v0.226h-0.452v0.226h-0.226v0.226h-0.226v-0.226h0.169v-0.282h0.508z" fill="#5DA9A9"/><path d="M66.842 47.365h0.452v0.226h0.226v0.226h-0.452v-0.226l-0.452 0.056v-0.113h0.226z" fill="#0F3950"/><path d="M58.148 91.287h0.226v0.508h0.226v0.226h-0.452z" fill="#164959"/><path d="M75.311 89.424h0.226v0.96h-0.226z" fill="#76E0D2"/><path d="M78.641 73.673h0.226v0.226h0.226v0.226h0.226v0.282h-0.452l0.169 -0.056v-0.169h-0.226v-0.282h-0.169z" fill="#326977"/><path d="M49.228 61.423h0.452v0.226h0.226v0.226h-0.452v-0.169h-0.226z" fill="#143F54"/><path d="M83.327 54.817q0.168 -0.002 0.335 -0.004l0.189 -0.002C84.005 54.817 84.005 54.817 84.061 54.874c0.008 0.151 0.002 0.301 0 0.452h-0.282v-0.226h-0.226v-0.226z" fill="#67AFAE"/><path d="M56.963 86.376h0.226v0.96h-0.226z" fill="#4D8697"/><path d="M57.245 71.359h0.452v0.169h-0.226l-0.056 0.282h-0.452v-0.282h0.282z" fill="#0E3A54"/><path d="M77.907 65.431h0.226l0.056 0.282 -0.109 0.018 -0.116 0.039 -0.056 0.169h-0.677l0.226 -0.056v-0.226h0.452z" fill="#7DD5CF"/><path d="M72.714 60.971h0.226v0.226h-0.169l0.014 0.118 0.017 0.154 0.018 0.153c0.007 0.14 0.007 0.14 -0.05 0.309h-0.282v-0.508h0.226z" fill="#1E636A"/><path d="M72.939 101.901h0.282c0.046 0.165 0.069 0.252 0.004 0.413L73.165 102.409h-0.169v-0.226h-0.508v0.169h-0.226v-0.226h0.677z" fill="#63B5B5"/><path d="M59.56 101.675h0.226v0.226h0.452v0.226c-0.484 0.073 -0.484 0.073 -0.677 0z" fill="#71CDC3"/><path d="M63.794 75.819h0.452v0.169c-0.195 0.06 -0.375 0.062 -0.579 0.06l-0.184 -0.002L63.342 76.044v0.226h-0.508l0.226 -0.056v-0.226h0.734z" fill="#287671"/><path d="M48.946 56.737h0.226v0.226h-0.169l0.035 0.131C49.059 57.245 49.059 57.245 48.946 57.414v-0.169l-0.067 0.085c-0.133 0.11 -0.216 0.098 -0.385 0.085v-0.226h0.226v-0.226h0.226z" fill="#17455D"/><path d="M67.576 103.086h0.903v0.226h-0.903z" fill="#6DBBB8"/><path d="M60.294 101.675h0.452v0.226h0.226v0.226h-0.452v-0.226h-0.226z" fill="#0E3652"/><path d="M54.366 97.892h0.226v0.226h0.282v0.282h0.226v0.226h-0.282v-0.226l-0.226 -0.056v-0.169h-0.226z" fill="#468691"/><path d="M79.545 96.481h0.226v0.452h-0.226v0.226h-0.226v-0.452h0.226z" fill="#0D3B55"/><path d="M80.73 94.618h0.452v0.226h-0.226v0.452h-0.226z" fill="#255167"/><path d="M81.464 93.884h0.226c0.017 0.342 0.017 0.342 0 0.452l-0.169 0.113 -0.056 0.169h-0.226l-0.056 0.226v-0.452h0.226z" fill="#75CCC7"/><path d="M75.085 90.384h0.452v0.226h-0.226v0.452h-0.226z" fill="#6ABEB8"/><path d="M51.6 78.133h0.226v0.79h-0.056v-0.339l-0.113 0.056c-0.037 0.114 -0.037 0.114 -0.056 0.226h-0.282v-0.226h0.226z" fill="#19405D"/><path d="M73.222 77.682h0.452v0.452h-0.452z" fill="#153456"/><path d="M60.745 77.456h0.452v0.226h-0.226v0.226h-0.452v-0.226h0.226z" fill="#7AE0CB"/><path d="M71.81 76.722h0.452v0.226h0.226v0.226h-0.452v-0.226h-0.226z" fill="#143B57"/><path d="M63.794 75.536h0.903v0.226h-0.903z" fill="#103653"/><path d="M76.496 72.036h0.452v0.226h0.226v0.226h-0.452v-0.226h-0.226z" fill="#0E364F"/><path d="M58.374 70.625h0.226v0.452h-0.677v-0.226h0.452z" fill="#194B60"/><path d="M54.14 65.713h0.226v0.226h0.452v0.226h-0.677z" fill="#74D0C7"/><path d="M51.825 63.568h0.452v0.226h0.226v0.226h-0.452v-0.226h-0.226z" fill="#093B4E"/><path d="M80.279 54.14h0.903v0.226h-0.903z" fill="#7DDFD6"/><path d="M62.834 47.817h0.226v0.452h-0.226v0.226h-0.226v-0.452h0.226z" fill="#7DDBD2"/><path d="M74.407 92.529h0.226l-0.056 0.169 -0.169 0.056zm-0.226 0.226 0.226 0.056v0.169l-0.169 0.056c-0.069 0.198 -0.069 0.198 -0.113 0.395h-0.226v-0.452h0.282z" fill="#113D55"/><path d="M72.488 77.682h0.452v0.452h-0.452z" fill="#7ADAC7"/><path d="M79.319 74.125h0.226v0.226l0.226 0.056h-0.169v0.169h0.169v0.282h-0.226v-0.226h-0.226z" fill="#68BCBB"/><path d="M75.311 65.939h1.186v0.169h-1.186z" fill="#0C3651"/><path d="M55.326 65.939h1.186v0.169h-1.186z" fill="#09384F"/><path d="M84.23 55.834h0.226l0.056 0.395h0.169v0.282h-0.395z" fill="#0D3752"/><path d="m74.351 79.319 0.056 0.226h0.226v0.226h0.226v0.508l-0.226 -0.056 -0.056 -0.452h-0.226z" fill="#62AEB1"/><path d="M59.108 61.648h0.226v2.145h-0.226v-0.226h0.169v-1.694h-0.169z" fill="#1C575F"/><path d="M50.583 80.504h0.282v0.226h-0.226l0.002 0.202 0.002 0.264 0.001 0.133 0.001 0.129 0.001 0.118c-0.007 0.119 -0.03 0.225 -0.063 0.34h-0.169v-0.452h0.169z" fill="#469192"/><path d="M58.431 80.279h0.169v0.452h-0.226v0.226l-0.226 0.056v-0.508h0.282z" fill="#75D1CB"/><path d="M67.802 75.536c0.484 -0.008 0.484 -0.008 0.677 0.056v0.169h0.734v0.056q-0.226 0.002 -0.452 0.004l-0.127 0.001c-0.283 0.001 -0.553 -0.021 -0.832 -0.061z" fill="#3D8088"/><path d="M79.883 64.245h0.113v0.226l-0.452 0.056v0.226h-0.226v-0.452l0.109 0.002c0.047 0.001 0.093 0.001 0.141 0.002l0.141 0.002c0.116 0.008 0.116 0.008 0.173 -0.062" fill="#7ADBCB"/><path d="M79.545 54.422h0.226v0.452h-0.226v0.169h-0.226v-0.395l0.169 -0.056z" fill="#6CE3C9"/><path d="m78.359 98.344 0.226 0.056h-0.169l-0.056 0.677h-0.452v-0.226h0.226v-0.282h0.226z" fill="#73DEC6"/><path d="M83.271 86.827h0.056v1.186h-0.226v-0.734h0.169z" fill="#5EB9B1"/><path d="M54.422 56.963h0.226v0.226h0.226v0.226h0.226v0.282l-0.226 -0.056v-0.169h-0.282v-0.282h-0.169z" fill="#1A4B66"/><path d="M78.867 55.608h0.226v0.395l-0.191 0.046c-0.217 0.048 -0.217 0.048 -0.318 0.236h-0.169v-0.226h0.226v-0.226h0.226z" fill="#0D344C"/><path d="m79.093 98.175 -0.169 0.056c-0.218 0.216 -0.218 0.216 -0.3 0.501L78.641 98.852h-0.282l0.056 -0.452 0.169 -0.056 0.056 -0.169c0.167 -0.069 0.282 -0.054 0.452 0" fill="#7AD3CA"/><path d="M82.142 79.545h0.282v0.508h0.169v0.452h-0.226v-0.734h-0.226z" fill="#65ADB2"/><path d="m81.408 77.682 0.056 0.226h0.226v0.452h0.226v0.508l-0.056 -0.226h-0.226v-0.508h-0.226z" fill="#397480"/><path d="M53.237 75.311h0.226v0.452l-0.226 0.056v0.226h-0.226v-0.282h0.169z" fill="#0E3952"/><path d="M60.237 69.665h0.282v0.282h-0.508v0.226h-0.677v-0.056h0.452v-0.226h0.452z" fill="#32777E"/><path d="M54.874 65.883h1.863v0.226h-0.226v-0.169h-1.186v0.169h-0.226v-0.169z" fill="#163B58"/><path d="M64.02 60.971h0.565l-0.056 0.226h0.226v0.226h-0.282v-0.226h-0.452z" fill="#1C5667"/><path d="M63.286 47.535h0.508l-0.226 0.056v0.226h-0.226v0.226h-0.226l-0.056 0.226v-0.508h0.226z" fill="#68BDBB"/><path d="M63.342 102.804h0.903l0.056 0.226 0.226 0.056h-0.734v-0.226h-0.452z" fill="#205C6A"/><path d="M80.73 95.295h0.226v0.508h-0.452v-0.282h0.226z" fill="#6BBEB8"/><path d="M71.528 94.618h0.508v0.226h-0.226v0.226h-0.282z" fill="#6DC1B8"/><path d="M51.769 94.392h0.226l0.056 0.452h0.169v0.226h-0.169l-0.056 0.226v-0.452h-0.226z" fill="#7CDDD1"/><path d="M81.916 92.473h0.226v0.226h-0.226v0.734h-0.226v-0.452h0.169l-0.004 -0.222A3.331 3.331 0 0 1 81.859 92.529z" fill="#2A6370"/><path d="M74.351 91.795h0.226v0.226h-0.169v0.452h-0.282v-0.452h0.226z" fill="#7DDBCD"/><path d="M73.673 70.117h0.452l0.056 0.226h0.452v0.282h-0.282v-0.226h-0.452v-0.226z" fill="#488992"/><path d="M57.414 65.431h0.508v0.226h-0.452v0.226h-0.282v-0.226h0.226z" fill="#13455A"/><path d="M54.14 65.431h0.508v0.226h0.226v0.226h-0.282v-0.226h-0.452z" fill="#0F354D"/><path d="M80.956 62.89h0.339l-0.169 0.452h-0.395v-0.282h0.226z" fill="#7ADDCD"/><path d="M57.697 59.785h0.226v0.226h0.226v0.226l0.226 0.056q-0.122 0.002 -0.243 0.004l-0.137 0.002C57.866 60.294 57.866 60.294 57.697 60.237z" fill="#13415C"/><path d="M73.222 65.205h0.226v0.226h0.226v0.226c-0.381 0.064 -0.381 0.064 -0.508 0z" fill="#80DCD1"/><path d="M73.448 60.011h0.226v0.226h0.395l0.056 0.226 -0.452 0.056v-0.226h-0.226z" fill="#274C6B"/><path d="M50.132 81.859h0.056v0.282h0.169v0.677l-0.226 0.056z" fill="#7CD4CD"/><path d="M82.593 81.182h0.056v0.282h0.169v0.677l-0.226 0.056z" fill="#134757"/><path d="M76.496 57.471h0.339l-0.113 0.452h-0.452v-0.226h0.226z" fill="#235062"/><path d="M75.536 100.715h0.339c-0.067 0.19 -0.122 0.326 -0.282 0.452 -0.128 0.017 -0.128 0.017 -0.265 0.011l-0.138 -0.005L75.085 101.167v-0.169h0.452z" fill="#7ADDD1"/><path d="M71.81 94.844h0.226v0.452l-0.452 0.056v-0.282h0.226z" fill="#163B58"/><path d="m51.543 93.207 0.056 0.226h0.226v0.677l0.226 0.056v0.452h-0.056v-0.282h-0.169c-0.054 -0.163 -0.062 -0.265 -0.06 -0.434l0.002 -0.138L51.769 93.658h-0.226z" fill="#2A6373"/><path d="M51.317 78.867h0.282l-0.056 0.677 -0.226 0.056z" fill="#0D384F"/><path d="M69.213 75.819h0.226v0.169h0.96v0.282h-0.282v-0.226h-0.903z" fill="#24696A"/><path d="M55.551 66.165h0.79l-0.056 0.226h-0.734z" fill="#6AD1C3"/><path d="M50.358 62.608h0.282v0.226h0.226v0.226l0.226 0.056h-0.508v-0.226h-0.226z" fill="#5DA7A9"/><path d="M78.359 55.777h0.282v0.282h-0.226v0.452l-0.056 -0.226h-0.226v-0.282h0.226z" fill="#2E6977"/><path d="M79.545 54.874h0.282l-0.056 0.452h-0.452v-0.226h0.226z" fill="#1E5662"/><path d="M55.326 98.852h0.677v0.226h-0.169l-0.056 0.226v-0.226h-0.452z" fill="#295370"/><path d="M64.471 96.029h0.734v0.226h-0.734z" fill="#509B9E"/><path d="M62.834 95.804h0.734v0.226h-0.734z" fill="#0D3B59"/><path d="M52.051 94.618h0.226v0.452h0.226v0.226h-0.452v-0.226h0.169v-0.226h-0.169z" fill="#6AB4B5"/><path d="M59.56 93.432h0.226v0.226h0.226v0.282l-0.452 -0.056z" fill="#15435A"/><path d="M73.673 92.699h0.452v0.226h-0.226v0.282h-0.226z" fill="#73CEC2"/><path d="M59.108 92.699h0.452v0.508h-0.226v-0.282h-0.226z" fill="#66BAB8"/><path d="M58.374 91.569h0.452v0.226h-0.169v0.226h0.169v0.226h-0.226v-0.452h-0.226z" fill="#68B9B5"/><path d="M75.536 89.198h0.226v0.734h-0.226z" fill="#7BD3D1"/><path d="M57.019 85.416h0.169v0.96l-0.169 0.056z" fill="#5E9EAC"/><path d="M75.311 80.504h0.226l0.056 0.677h-0.282z" fill="#0F3754"/><path d="M68.705 75.536h0.734v0.226h-0.734z" fill="#0E2E4F"/><path d="M57.189 70.851h0.508v0.226h-0.282v0.226h-0.226z" fill="#78E0CE"/><path d="m74.633 70.343 0.452 0.056v0.452h-0.226v-0.226h-0.226z" fill="#6BBDBE"/><path d="M61.648 69.213h0.734v0.226h-0.734z" fill="#133C56"/><path d="M64.697 68.48h0.734v0.226h-0.734z" fill="#6FBEBB"/><path d="M52.954 64.753h0.226v0.226h0.282v0.226h-0.508z" fill="#63B7B5"/><path d="M51.543 63.568h0.226v0.226h0.282v0.226h-0.508z" fill="#64ACAC"/><path d="M84.287 59.785h0.226v0.282h-0.226l0.004 0.194C84.287 60.463 84.287 60.463 84.23 60.519c-0.151 0.008 -0.301 0.002 -0.452 0l0.226 -0.056v-0.226h0.226z" fill="#6DC0BD"/><path d="M83.553 60.237h0.452v0.226h-0.226v0.282h-0.226z" fill="#225E6E"/><path d="M62.608 60.011h0.226v0.282h0.226v0.226h-0.452z" fill="#7DDFD2"/><path d="M62.157 58.826h0.226v0.734h-0.226z" fill="#7EDFCE"/><path d="m68.931 58.6 0.226 0.056h-0.169v0.226h0.226v0.226h-0.226v0.677h-0.226v-0.226h0.169z" fill="#36757E"/><path d="M56.003 58.374h0.282v0.226h0.226v0.226l0.226 0.056h-0.452l-0.056 -0.226h-0.226z" fill="#225368"/><path d="M55.834 57.922h0.452v0.452h-0.282v-0.226h-0.169z" fill="#78DFD0"/><path d="M48.946 56.285h0.226v0.226h-0.169l-0.056 0.452h-0.226v-0.452h0.226z" fill="#78CEC8"/><path d="M50.866 55.551h1.411v0.226h-0.282v-0.169h-0.903v0.169h-0.226z" fill="#4B9097"/><path d="M50.132 55.551h0.734v0.226h-0.734z" fill="#78CEC7"/><path d="M81.182 54.14h0.734v0.226h-0.734z" fill="#6FC8C6"/><path d="M59.56 101.393c0.255 -0.004 0.485 -0.006 0.734 0.056v0.226l-0.734 -0.056z" fill="#0D324B"/><path d="M50.583 91.344h0.226c0.075 0.225 0.06 0.443 0.056 0.677h-0.226c-0.055 -0.229 -0.061 -0.443 -0.056 -0.677" fill="#7AD9CE"/><path d="m78.133 72.939 0.282 0.056v0.169l0.226 0.056v0.452l-0.056 -0.226h-0.226v-0.226h-0.226z" fill="#70C3BF"/><path d="M75.536 66.165h0.734v0.226h-0.677z" fill="#6DCBC0"/><path d="m68.285 60.008 0.194 0.004v0.282h-0.226v0.169h-0.226q-0.003 -0.198 0 -0.395c0.056 -0.056 0.056 -0.056 0.258 -0.06" fill="#0D3D53"/><path d="M64.302 46.857h0.677v0.226h-0.734z" fill="#77D6CE"/><path d="M77.23 99.304h0.226v0.282h-0.226v0.226h-0.508l0.226 -0.056v-0.226h0.282z" fill="#4F989B"/><path d="m53.18 96.255 0.056 0.226h0.226v0.226h0.226v0.282h-0.282v-0.282h-0.226z" fill="#4A8D95"/><path d="M70.173 95.578h0.226v0.226h-0.96v0.226h-0.226v-0.282h0.96z" fill="#67B3B7"/><path d="M58.148 92.021h0.452v0.226l-0.169 0.056 -0.056 0.169h-0.226z" fill="#122F4E"/><path d="M57.697 80.73h0.452v0.226h-0.226v0.452h-0.226v-0.169h0.169v-0.282h-0.169z" fill="#204B63"/><path d="M76.27 71.076h0.452v0.226l-0.169 0.056 -0.056 0.169h-0.226z" fill="#79E4D0"/><path d="M74.859 66.165h0.677l0.056 0.226h-0.734z" fill="#7EE0CD"/><path d="M78.867 64.02h0.452v0.452h-0.226l-0.056 -0.169 -0.169 -0.056z" fill="#1D435D"/><path d="M59.56 61.931h0.226v0.677l-0.226 0.056z" fill="#73E4CE"/><path d="m48.946 61.197 0.056 0.226h0.226v0.282h0.226v0.226h-0.282v-0.226h-0.226z" fill="#6ABCB4"/><path d="M83.779 60.519h0.282l-0.056 0.452h-0.452v-0.226h0.226z" fill="#7AE0D7"/><path d="M76.722 56.511h0.282l-0.056 0.677h-0.226z" fill="#78E3CF"/><path d="M49.454 56.285h0.282l-0.056 0.452h-0.452v-0.226h0.226z" fill="#0D3B51"/><path d="M52.729 55.777h0.282v0.226h0.452v0.282h-0.282v-0.226l-0.452 -0.056z" fill="#4E9496"/><path d="M80.053 54.648h0.226v0.452h-0.452v-0.226l0.169 -0.056z" fill="#0D354C"/><path d="M70.625 102.352h0.677v0.226h-0.677z" fill="#0C384D"/><path d="M57.697 100.715h0.226v0.226h0.452v0.226h-0.226v-0.169h-0.452l-0.056 0.169v-0.169l-0.226 -0.056h0.282z" fill="#6EBEBC"/><path d="M56.285 99.812h0.226v0.226h0.226v0.226h-0.452z" fill="#77DDCC"/><path d="M68.028 96.029h0.677v0.226h-0.677z" fill="#4C969A"/><path d="M57.922 91.118h0.226v0.677h-0.226z" fill="#113452"/><path d="M74.633 79.545h0.452v0.452h-0.226v-0.226h-0.226z" fill="#083951"/><path d="M72.262 77.23h0.226v0.226h0.226v0.226h-0.452z" fill="#65AFAD"/><path d="M61.648 76.722h0.226v0.226l-0.395 0.056 -0.056 0.226h-0.452l0.226 -0.056v-0.226h0.452z" fill="#488F95"/><path d="M63.06 75.988v0.226c-0.225 0.075 -0.443 0.06 -0.677 0.056v-0.226c0.231 -0.031 0.444 -0.056 0.677 -0.056" fill="#0E4050"/><path d="M77.456 72.262h0.452v0.452h-0.226v-0.226h-0.226z" fill="#83D5D5"/><path d="M56.511 71.81h0.226v0.452h-0.452v-0.226h0.226z" fill="#214E61"/><path d="M75.819 71.076h0.452v0.452h-0.226v-0.226h-0.226z" fill="#6FC6BF"/><path d="M77.23 65.939h0.677v0.226h-0.677z" fill="#79E2CB"/><path d="M73.222 64.979h0.452v0.452h-0.226v-0.226h-0.226z" fill="#326F7C"/><path d="M50.64 62.382h0.677v0.226h-0.677z" fill="#162552"/><path d="M83.327 60.745h0.226v0.452h-0.452v-0.226h0.226z" fill="#63B4B5"/><path d="M66.617 60.971h0.677v0.226h-0.677z" fill="#0F344C"/><path d="M58.148 60.294h0.226v0.226h0.226v0.226h-0.452z" fill="#08364B"/><path d="M68.705 59.785h0.056v0.452l-0.226 0.056v0.226h-0.282v-0.226h0.226v-0.282h0.226z" fill="#53A5A3"/><path d="M73.222 59.785h0.452v0.226h-0.226v0.226h-0.226z" fill="#85DBD0"/><path d="M57.697 59.56h0.452v0.452h-0.226v-0.226h-0.226z" fill="#6AC0C0"/><path d="M56.963 59.108h0.226v0.226h0.226v0.226h-0.452z" fill="#235367"/><path d="M74.859 58.882h0.226v0.452h-0.452v-0.226h0.226z" fill="#204E62"/><path d="M56.511 58.882h0.226v0.226h0.226v0.226h-0.452z" fill="#103356"/><path d="M56.285 58.374h0.452v0.452h-0.226v-0.226h-0.226z" fill="#71C5C2"/><path d="M53.914 56.511h0.452v0.452h-0.226v-0.226h-0.226z" fill="#58A5A6"/><path d="M51.091 55.608h0.903v0.169h-0.903z" fill="#3C7B86"/><path d="M83.327 54.874h0.226v0.226h0.226v0.226h-0.452z" fill="#13374E"/><path d="M63.568 47.083h0.452v0.452h-0.226v-0.226h-0.226z" fill="#6FCDC1"/><path d="M72.996 93.941h0.226q0.003 0.198 0 0.395c-0.056 0.056 -0.056 0.056 -0.258 0.06L72.77 94.392v-0.226h0.226z" fill="#18455E"/><path d="M61.423 95.07h0.508v0.282c-0.191 0.048 -0.32 0.063 -0.508 0z" fill="#103250"/><path d="M74.125 59.56h0.226v0.226l-0.113 0.056 -0.056 0.226h-0.508l0.226 -0.056v-0.226h0.226z" fill="#114158"/><path d="M84.23 55.551h0.282v0.452h0.226v0.282l-0.226 -0.056 -0.056 -0.395h-0.226z" fill="#2D767D"/><path d="M58.374 100.941h0.452l0.049 0.109c0.054 0.125 0.054 0.125 0.176 0.173v0.169h-0.169l-0.056 -0.169 -0.452 -0.056z" fill="#184A5E"/><path d="m82.819 88.239 0.056 0.226h0.169v0.282h-0.169v1.186h-0.056z" fill="#24576A"/><path d="M57.64 81.408h0.282v0.282h-0.226v0.452h-0.226v-0.226h0.169z" fill="#3C7784"/><path d="M59.108 63.794h0.226v0.508l-0.169 0.056 -0.056 0.169 -0.226 -0.056h0.169z" fill="#64B8B5"/><path d="M62.382 58.826h0.226c0.049 0.169 0.063 0.318 0.06 0.494l-0.002 0.137L62.665 59.56h0.169v0.226h-0.226v-0.677h-0.226z" fill="#205967"/><path d="M48.495 57.414h0.282l-0.056 0.282h-0.169l-0.056 0.452h-0.226v-0.226h0.226z" fill="#11465A"/><path d="M67.068 47.309h0.508v0.226h0.226v0.226h-0.226v-0.169h-0.282v-0.226z" fill="#316973"/><path d="M57.414 89.65h0.226c0.062 0.249 0.061 0.479 0.056 0.734l-0.056 -0.226 -0.169 0.056c-0.091 -0.182 -0.06 -0.363 -0.056 -0.565" fill="#244F68"/><path d="M82.875 82.593h0.169c0.043 0.189 0.063 0.363 0.062 0.557l-0.001 0.152 -0.001 0.156 -0.001 0.159A99.247 99.247 0 0 1 83.101 84.005h-0.056v-0.96h-0.169z" fill="#3D7682"/><path d="M58.882 78.811h0.226v0.508h-0.282c-0.006 -0.347 -0.006 -0.347 0 -0.452z" fill="#184960"/><path d="M60.463 77.456h0.282v0.226h-0.452v0.226h-0.282v-0.226l0.452 -0.056z" fill="#265969"/><path d="M78.133 64.753h0.452v0.169h-0.226v0.282h-0.226z" fill="#0F3A54"/><path d="M79.77 63.794h0.226v0.226h-0.169l-0.056 0.282h-0.452l0.226 -0.056v-0.226h0.226z" fill="#6CB5B7"/><path d="M49.003 61.705h0.169v0.226h0.282v0.226h-0.452z" fill="#7AE4CA"/><path d="M79.093 55.326h0.226v0.452h-0.226v-0.169h-0.226v0.226l-0.226 -0.056h0.169v-0.226h0.282z" fill="#1B495C"/><path d="M53.18 75.311h0.056c0.007 0.325 0.007 0.325 -0.056 0.452h-0.169v0.282h-0.282v-0.226h0.226v-0.282h0.226z" fill="#377A84"/><path d="M68.705 75.819h0.508v0.226h-0.903v-0.056h0.395z" fill="#76C3C1"/><path d="M68.705 68.762h0.508v0.226h-0.903v-0.056h0.395z" fill="#114C59"/><path d="M64.02 102.578v0.056l-0.134 0.008 -0.173 0.013c-0.057 0.004 -0.114 0.008 -0.173 0.012 -0.047 0.008 -0.093 0.015 -0.141 0.023l-0.056 0.113h-0.508v-0.169c0.396 -0.062 0.785 -0.062 1.186 -0.056" fill="#1A3D5A"/><path d="M60.971 102.352h0.734v0.226h0.452v0.056h-0.734v-0.226h-0.452z" fill="#5AA4A8"/><path d="M83.045 88.239h0.056v0.96h-0.226v-0.452h0.169z" fill="#3C7E84"/><path d="M51.995 76.948h0.282v0.226h-0.226v0.508h-0.226v-0.226h0.169z" fill="#539B9F"/><path d="M71.528 76.722h0.282v0.226h0.226v0.226h-0.226v-0.169h-0.282z" fill="#4C959C"/><path d="M63.568 68.762h0.452v0.169c-0.157 0.044 -0.295 0.063 -0.458 0.062l-0.129 -0.001 -0.133 -0.001 -0.136 -0.001q-0.165 -0.001 -0.33 -0.003v-0.056h0.734z" fill="#418C8C"/><path d="M62.834 60.011h0.282v0.226h0.226v0.226h-0.226v-0.169h-0.282z" fill="#2D6D76"/><path d="M54.14 56.963h0.282v0.226l0.169 0.056 -0.169 0.056 -0.056 0.113h-0.226z" fill="#133A55"/><path d="M68.536 48.495h0.226v0.452l0.226 0.056v0.452h-0.056v-0.282h-0.169l-0.056 -0.452h-0.169z" fill="#398485"/><path d="M75.311 100.715h0.226v0.282h-0.452v0.169h-0.226v-0.226h0.452z" fill="#4D989C"/><path d="M54.874 98.344h0.452v0.508h-0.226v-0.452z" fill="#2A5F71"/><path d="M61.931 95.07h0.226v0.226h0.452v0.226h-0.226v-0.169h-0.452z" fill="#468C91"/><path d="M82.593 88.973h0.056v0.452h0.169v0.452h-0.226z" fill="#07374D"/><path d="M50.583 89.029h0.056v0.903l-0.226 -0.056v-0.452h0.169z" fill="#0D4154"/><path d="M56.963 84.23h0.226v0.508h-0.169l-0.056 0.226z" fill="#3F798B"/><path d="M83.101 84.005h0.226v0.734l-0.056 -0.226h-0.169z" fill="#56A4A6"/><path d="M50.358 83.101h0.056v0.903h-0.226v-0.452h0.169z" fill="#244767"/><path d="M81.69 61.705h0.226l-0.056 0.395 -0.395 0.056v-0.226h0.226z" fill="#132D4E"/><path d="M64.641 47.535v0.056l-0.339 0.056 -0.056 0.169h-0.452v-0.226c0.286 -0.04 0.558 -0.062 0.847 -0.056" fill="#15304C"/><path d="M48.495 61.197h0.452v0.282h-0.395z" fill="#75CFC9"/><path d="M58.939 101.167h0.621v0.226h-0.508v-0.169z" fill="#133150"/><path d="M82.875 61.197h0.226l-0.056 0.226 -0.226 0.056v0.169c-0.153 0.076 -0.283 0.06 -0.452 0.056l0.226 -0.056v-0.226h0.282z" fill="#66B7B8"/><path d="M69.665 102.86h0.565l-0.056 0.226h-0.508z" fill="#65BCBD"/><path d="M71.81 102.409h0.508l-0.056 0.169 0.169 0.056 -0.621 0.056z" fill="#79D7CC"/><path d="M71.585 102.352h0.452l-0.226 0.056v0.226h-0.96v-0.056h0.734z" fill="#529B9E"/><path d="M60.237 102.126h0.734v0.226h-0.452v-0.169h-0.282z" fill="#6FBAC0"/><path d="m60.011 93.658 0.056 0.226h0.226v0.226l0.452 0.056v0.226h-0.282v-0.226h-0.226v-0.226h-0.226z" fill="#448792"/><path d="m58.826 92.247 0.056 0.226h0.226v0.452l0.226 0.056h-0.282v-0.226h-0.226z" fill="#36707E"/><path d="M50.132 88.464h0.056v0.282h0.169v0.452h-0.226z" fill="#61A8AD"/><path d="M76.044 88.013h0.226v0.508l-0.226 0.056z" fill="#275667"/><path d="M68.48 68.705h1.411v0.226h-0.226v-0.169h-1.186z" fill="#53A6A1"/><path d="M78.359 64.979h0.226v0.226l-0.113 0.056 -0.056 0.169h-0.282v-0.226h0.226z" fill="#6AB4B9"/><path d="M63.794 60.971h0.226c0.064 0.318 0.064 0.318 0 0.508h-0.226z" fill="#72D1C7"/><path d="m62.608 49.003 0.056 0.226h0.169v0.226c-0.172 0.055 -0.279 0.055 -0.452 0v-0.226h0.226z" fill="#1A4057"/><path d="M71.754 102.126h0.508v0.226h-0.508z" fill="#184661"/><path d="M57.189 100.489h0.508v0.226h-0.508z" fill="#62B6B5"/><path d="M56.511 99.812h0.226v0.169h0.226v0.282h-0.226v-0.226h-0.226z" fill="#40888D"/><path d="M76.496 99.53h0.452v0.226l-0.452 0.056z" fill="#0E3651"/><path d="M77.174 99.078h0.226v0.226h-0.169v0.226h-0.282v-0.226h0.226z" fill="#0F3750"/><path d="M53.688 96.989h0.226v0.169h0.226v0.282h-0.226v-0.226h-0.226z" fill="#1E5668"/><path d="M65.205 96.029h0.508v0.226h-0.508z" fill="#72CAC1"/><path d="M62.608 95.295h0.508v0.226h-0.508z" fill="#7AD8C9"/><path d="M60.971 94.392h0.226v0.169h0.226v0.282h-0.226v-0.226h-0.226z" fill="#70C6BE"/><path d="M80.956 94.11h0.226v0.508h-0.226z" fill="#0D324C"/><path d="M58.656 91.795h0.226v0.226h0.226v0.226h-0.282v-0.226h-0.169z" fill="#82DED2"/><path d="M82.142 91.287h0.226v0.508h-0.226z" fill="#0A374D"/><path d="M50.866 91.061h0.226v0.508h-0.226z" fill="#083950"/><path d="M57.697 89.876h0.226v0.508h-0.226z" fill="#68B4B8"/><path d="M50.358 89.198h0.056v0.677l0.226 0.056v0.452l-0.056 -0.226h-0.169c-0.064 -0.204 -0.062 -0.394 -0.06 -0.607l0.002 -0.2z" fill="#3E8587"/><path d="M49.906 84.513h0.226v0.452h-0.169l-0.056 0.226z" fill="#69C6BC"/><path d="M57.471 82.593h0.226v0.452l-0.226 0.113z" fill="#7DDCCF"/><path d="M75.536 82.367h0.226v0.508h-0.226z" fill="#80E1D2"/><path d="M50.64 81.182h0.226v0.452l-0.226 0.113z" fill="#0D354A"/><path d="M82.142 79.77h0.226v0.508h-0.226z" fill="#1E4D65"/><path d="M50.866 79.77h0.226v0.508h-0.226z" fill="#347D83"/><path d="M81.916 78.359h0.226v0.508h-0.226z" fill="#81D8CD"/><path d="m70.399 75.988 0.452 0.056v0.226h-0.452z" fill="#0F394F"/><path d="M52.729 76.044h0.226v0.226h-0.169v0.226h-0.282v-0.226h0.226z" fill="#205067"/><path d="M64.697 75.536h0.508v0.226h-0.508z" fill="#296572"/><path d="M53.011 74.859h0.226v0.226h0.226v0.226h-0.282v-0.226h-0.169z" fill="#5CB7AD"/><path d="M58.6 70.625h0.508v0.226h-0.508z" fill="#0F3352"/><path d="M61.423 69.439h0.508v0.226h-0.508z" fill="#122C50"/><path d="M70.173 68.931h0.903v0.226l0.226 0.056h-0.452v-0.226h-0.677z" fill="#69B3B5"/><path d="M79.319 64.471v0.282h-0.452v-0.226c0.163 -0.047 0.276 -0.056 0.452 -0.056" fill="#64ADAC"/><path d="M72.488 64.245h0.226v0.508h-0.226z" fill="#7ADFD2"/><path d="M51.091 63.116h0.226v0.169h0.226v0.282h-0.226v-0.226h-0.226z" fill="#2B6874"/><path d="M81.69 62.157h0.226v0.452h-0.282z" fill="#6ABFB7"/><path d="M48.946 60.971h0.282v0.452h-0.226z" fill="#0F3B57"/><path d="M63.286 60.745h0.508v0.226h-0.508z" fill="#69B9B6"/><path d="M84.287 59.334h0.452v0.226h-0.226l-0.056 0.226v-0.226h-0.169z" fill="#1D4B61"/><path d="M68.48 59.334h0.452v0.226h-0.169l-0.056 0.226v-0.226h-0.226z" fill="#1D4057"/><path d="M48.269 57.414h0.226v0.508h-0.226z" fill="#5EA9AD"/><path d="M84.964 57.189h0.226v0.508h-0.226z" fill="#448D90"/><path d="M55.1 57.189h0.226v0.226h0.226v0.226h-0.226v-0.169h-0.226z" fill="#80DCD5"/><path d="m84.682 56.285 0.056 0.226h0.226v0.226h-0.452v-0.226h0.169z" fill="#1E4E5F"/><path d="M49.906 56.059h0.508l-0.056 0.226 -0.452 0.056z" fill="#102C4A"/><path d="M68.988 49.454h0.226v0.677l-0.056 -0.226h-0.169z" fill="#428990"/><path d="M62.157 48.946h0.226v0.508h-0.226z" fill="#7EDBD3"/><path d="M68.988 48.72h0.226v0.508h-0.226z" fill="#80E3D4"/><path d="M60.971 102.409h0.452v0.226h-0.621l0.169 -0.056z" fill="#7BDCD0"/><path d="M72.488 102.183h0.508l-0.056 0.226h-0.452z" fill="#7FD6D3"/><path d="m82.65 80.504 0.226 0.056v0.621l-0.056 -0.226h-0.169z" fill="#7BDFCD"/><path d="M73.899 78.585h0.226c0.076 0.153 0.06 0.283 0.056 0.452h0.226v0.282l-0.056 -0.226h-0.226v-0.226h-0.226z" fill="#1B5161"/><path d="M55.326 72.996h0.226v0.169l0.169 0.056h-0.169v0.226h-0.226z" fill="#0E304F"/><path d="M77.682 72.996h0.226v0.169h0.226v0.282h-0.226v-0.226l-0.226 -0.056z" fill="#0B334D"/><path d="M75.536 57.697h0.282l-0.056 0.452h-0.226z" fill="#75E6D0"/><path d="m68.988 60.294 -0.056 0.226h-0.395v-0.226c0.186 -0.062 0.266 -0.045 0.452 0" fill="#73E3CC"/><path d="M65.205 103.086h0.508l-0.056 0.226h-0.452z" fill="#61A7A7"/><path d="M61.705 102.352h0.508l-0.056 0.226h-0.452z" fill="#225A6A"/><path d="M73.448 101.675v0.226h-0.452v-0.226c0.186 -0.062 0.266 -0.045 0.452 0" fill="#0A404E"/><path d="M56.963 100.038h0.226l0.056 0.169 0.169 0.056v0.226h-0.226v-0.226h-0.226z" fill="#1D5866"/><path d="M68.988 96.029h0.508l-0.056 0.226h-0.452z" fill="#0A3855"/><path d="M80.448 95.521h0.056v0.508h-0.226l-0.056 0.226v-0.508h0.226z" fill="#225A6A"/><path d="M74.125 92.473h0.282v0.282h-0.226v0.226h-0.282l0.226 -0.056z" fill="#498C93"/><path d="M50.866 91.795h0.226v0.452l-0.226 0.056z" fill="#61B0B3"/><path d="M82.593 90.61h0.056q0.002 0.176 0.004 0.353l0.002 0.198c-0.005 0.149 -0.018 0.267 -0.062 0.408h-0.226v-0.282h0.226z" fill="#569FA3"/><path d="M57.697 90.61h0.226v0.452l-0.226 0.056z" fill="#0D384F"/><path d="M76.044 83.327h0.452v0.226c-0.172 0.055 -0.279 0.055 -0.452 0z" fill="#193C56"/><path d="M82.875 82.142h0.169c0.049 0.169 0.063 0.318 0.06 0.494l-0.002 0.137L83.101 82.875h-0.056v-0.282h-0.169z" fill="#61A7A9"/><path d="M82.367 80.504h0.226v0.452l-0.226 0.056z" fill="#255C6A"/><path d="M50.809 79.77h0.056v0.734h-0.282v-0.282h0.226z" fill="#70CFC3"/><path d="M53.463 74.859h0.226v0.452l-0.226 0.056z" fill="#1E5564"/><path d="m79.601 74.407 0.226 0.056v0.113l0.226 0.056v0.226h-0.282v-0.282h-0.169z" fill="#79E1D1"/><path d="M78.133 73.222h0.226v0.226l-0.169 0.056 -0.056 0.169h-0.226v-0.226h0.226z" fill="#204460"/><path d="M75.593 70.851h0.508l-0.056 0.226h-0.452z" fill="#79E4D0"/><path d="M72.036 69.213h0.508l-0.056 0.226h-0.452z" fill="#7CDBCC"/><path d="M72.262 64.02h0.452v0.226l-0.452 0.056z" fill="#6DD0C3"/><path d="M59.334 63.342h0.226v0.452l-0.226 0.056z" fill="#81DDCF"/><path d="M72.714 63.286h0.056v0.96l-0.056 -0.226h-0.226v-0.226h0.226z" fill="#296470"/><path d="M66.842 61.197h0.508l-0.056 0.226h-0.452z" fill="#599EA1"/><path d="M77.174 56.963h0.339l-0.056 0.282h-0.452l-0.056 0.169v-0.226h0.226z" fill="#1C4B62"/><path d="M81.916 54.14h0.508l-0.056 0.226h-0.452z" fill="#7BD9D2"/><path d="M64.245 47.083h0.508l-0.056 0.226h-0.452z" fill="#3E888D"/><path d="M67.576 103.086h0.452v0.226h-0.452z" fill="#5FA4A7"/><path d="M64.753 103.086h0.452v0.226h-0.452z" fill="#72C0BC"/><path d="M69.213 102.86h0.452v0.226h-0.452z" fill="#37868A"/><path d="M63.342 102.86h0.452v0.226h-0.452z" fill="#53A7A6"/><path d="M60.971 102.126h0.452v0.226h-0.452z" fill="#24526C"/><path d="M73.673 101.675h0.452v0.226h-0.452z" fill="#81D3CB"/><path d="M59.108 101.675h0.452v0.226h-0.452z" fill="#82DDD1"/><path d="M74.407 101.167h0.452l-0.226 0.056v0.226h-0.508l0.226 -0.056z" fill="#3E7D87"/><path d="M58.374 101.167h0.452l0.056 0.226 0.226 0.056h-0.508v-0.226z" fill="#4E9199"/><path d="M57.697 100.489h0.452v0.226h-0.452z" fill="#0F3A55"/><path d="M77.682 99.53v0.226l-0.452 0.056v-0.226c0.163 -0.047 0.276 -0.056 0.452 -0.056" fill="#75DFC9"/><path d="M54.874 97.892h0.226v0.452h-0.226z" fill="#0E2D51"/><path d="M80.504 95.804h0.226v0.452h-0.226z" fill="#7AE0CE"/><path d="M63.794 96.029h0.452v0.226h-0.452z" fill="#093552"/><path d="M68.931 95.804h0.282v0.226h-0.96v-0.056h0.677z" fill="#7BCECD"/><path d="M69.439 95.804h0.452v0.226h-0.452z" fill="#2E687E"/><path d="M63.568 95.804h0.452v0.226h-0.452z" fill="#4B8899"/><path d="M70.625 95.578h0.452v0.226h-0.452z" fill="#0A3048"/><path d="M80.956 95.07h0.226v0.452h-0.226z" fill="#7FDED0"/><path d="M80.504 95.07h0.226v0.452h-0.226z" fill="#103A53"/><path d="M72.036 94.618h0.226v0.452h-0.226z" fill="#1F5465"/><path d="M71.076 94.844h0.452v0.226h-0.452z" fill="#84DCD2"/><path d="M59.785 93.207h0.452v0.226h-0.452z" fill="#71E4CC"/><path d="M81.916 92.021h0.226v0.452h-0.226z" fill="#0A344D"/><path d="M74.859 91.795h0.226v0.452h-0.226z" fill="#0E314B"/><path d="M51.091 91.795h0.226v0.452h-0.226z" fill="#0C3652"/><path d="M50.64 90.836h0.226v0.452h-0.226z" fill="#498895"/><path d="M75.311 89.932h0.226v0.452h-0.226z" fill="#7FD4D2"/><path d="M82.875 89.198h0.226v0.452h-0.226z" fill="#5FAEAA"/><path d="M75.762 87.787h0.056v0.677h0.169v0.282h-0.226z" fill="#73D7C6"/><path d="M50.188 87.787h0.226v0.452h-0.226z" fill="#1B4865"/><path d="M56.963 87.335h0.226v0.452h-0.226z" fill="#2B5D76"/><path d="M75.988 84.287h0.056v0.452h0.169v0.226h-0.169v0.452h-0.056z" fill="#78D2C7"/><path d="M76.044 84.287h0.169c0.075 0.225 0.06 0.443 0.056 0.677l-0.056 -0.226h-0.169z" fill="#6AB4B3"/><path d="M83.101 83.553h0.226v0.452h-0.226z" fill="#72C5C3"/><path d="M56.963 83.553h0.226v0.452h-0.226z" fill="#0C3B51"/><path d="M76.044 83.553h0.226v0.452h-0.226z" fill="#337477"/><path d="M50.358 81.182h0.226v0.282h-0.169v0.677h-0.056z" fill="#66C2B8"/><path d="M50.64 80.73h0.226v0.452h-0.226z" fill="#23636A"/><path d="M74.859 80.279h0.226v0.452h-0.226z" fill="#6BBBBC"/><path d="M50.866 80.279h0.226v0.452h-0.226z" fill="#043C4D"/><path d="M74.125 79.319h0.226v0.452h-0.226z" fill="#84D6D7"/><path d="M81.916 79.093h0.226v0.452h-0.226z" fill="#1F5062"/><path d="M51.091 79.093h0.226v0.452h-0.226z" fill="#3C7680"/><path d="M60.294 77.682h0.226v0.452h-0.226z" fill="#6ABFB6"/><path d="M72.036 77.23h0.226v0.452h-0.226z" fill="#7DE0CE"/><path d="M52.051 76.496h0.226v0.452h-0.226z" fill="#7BDBCF"/><path d="M71.076 76.496h0.452v0.226h-0.452z" fill="#286D79"/><path d="M70.399 76.496h0.452v0.226h-0.452z" fill="#80E1D3"/><path d="M61.423 76.496h0.452v0.226h-0.452z" fill="#103355"/><path d="M59.334 76.496h0.452v0.226h-0.452z" fill="#282D61"/><path d="M70.625 76.27h0.452v0.226h-0.452z" fill="#2E6071"/><path d="M63.794 75.819h0.452v0.169c-0.225 0.075 -0.443 0.06 -0.677 0.056l0.226 -0.056z" fill="#4D8992"/><path d="M80.279 75.311h0.452v0.226h-0.452z" fill="#7DE2D1"/><path d="M53.688 74.859h0.226v0.452h-0.226z" fill="#0D2F4F"/><path d="M56.737 71.81h0.226v0.452h-0.226z" fill="#122D50"/><path d="M57.414 71.076h0.282v0.282h-0.452l-0.056 0.169v-0.226h0.226z" fill="#478F94"/><path d="M75.536 71.076h0.282v0.226h0.226l-0.056 0.226v-0.169h-0.452z" fill="#337179"/><path d="M75.085 70.625h0.452v0.226h-0.452z" fill="#7CE0D4"/><path d="M58.656 70.399h0.452v0.226h-0.452z" fill="#306E7C"/><path d="M59.108 69.891h0.452v0.226h-0.452z" fill="#7BDED0"/><path d="M72.262 69.439h0.452v0.226h-0.452z" fill="#68AFB1"/><path d="M60.971 69.439h0.452v0.226h-0.452z" fill="#285769"/><path d="M70.399 68.988h0.452v0.226h-0.452z" fill="#407285"/><path d="M62.382 68.988h0.452v0.226h-0.452z" fill="#487A8A"/><path d="M55.1 66.165h0.452v0.226h-0.452z" fill="#7AE3D2"/><path d="M53.914 65.713h0.226v0.452h-0.226z" fill="#79E2D0"/><path d="M74.407 65.657h0.452v0.226h-0.452z" fill="#0A3B4E"/><path d="M73.673 65.205h0.452v0.226h-0.452z" fill="#093450"/><path d="M78.641 64.753h0.226v0.452h-0.226z" fill="#6DBDBC"/><path d="M78.867 64.753h0.452v0.226h-0.452z" fill="#7BDFCF"/><path d="M73.222 64.753h0.452v0.226h-0.452z" fill="#0B3551"/><path d="M58.882 64.528h0.226v0.452h-0.226z" fill="#80D6D5"/><path d="M52.729 64.02h0.226v0.452h-0.226z" fill="#0F3053"/><path d="M72.262 63.568h0.226v0.452h-0.226z" fill="#7FDED1"/><path d="M80.279 63.568h0.452v0.226h-0.452z" fill="#7CE4D2"/><path d="M51.825 63.568h0.452v0.226h-0.452z" fill="#11334F"/><path d="M80.279 63.342h0.452v0.226h-0.452z" fill="#67B5B4"/><path d="M50.64 62.608h0.452v0.226h-0.452z" fill="#103551"/><path d="M49.228 62.157h0.226v0.452h-0.226z" fill="#70EFCC"/><path d="m66.842 61.423 -0.226 0.056v0.169h-0.452v-0.169c0.225 -0.075 0.443 -0.06 0.677 -0.056" fill="#5AAEAD"/><path d="M59.108 60.971h0.226v0.452h-0.226z" fill="#79DCCD"/><path d="M49.228 61.197h0.452v0.226h-0.452z" fill="#112B50"/><path d="M67.802 60.971h0.452v0.226h-0.452z" fill="#7AE0D0"/><path d="M63.342 60.971h0.452v0.226h-0.452z" fill="#7EE3D4"/><path d="M58.6 60.745h0.226v0.452h-0.226z" fill="#14425D"/><path d="M73.448 60.294h0.226v0.452h-0.226z" fill="#0C2F50"/><path d="M73.222 60.294h0.226v0.452h-0.226z" fill="#1F5767"/><path d="M73.165 60.294h0.056v0.452h-0.226l-0.056 0.226v-0.508h0.226z" fill="#509C9C"/><path d="M63.568 60.294h0.226v0.452h-0.226z" fill="#0A364E"/><path d="M83.553 60.011h0.452v0.226h-0.452z" fill="#10314D"/><path d="M84.513 59.785h0.452v0.226h-0.452z" fill="#76E6D2"/><path d="M68.988 59.108h0.226v0.452h-0.226z" fill="#67BEBA"/><path d="M62.382 59.108h0.226v0.452h-0.226z" fill="#549DA1"/><path d="M75.085 58.882h0.226v0.452h-0.226z" fill="#153054"/><path d="M84.964 58.374h0.226v0.452h-0.226z" fill="#6BC0B6"/><path d="M62.157 58.148h0.226v0.452h-0.226z" fill="#55A8A5"/><path d="M76.044 57.922h0.452v0.226h-0.452z" fill="#19405A"/><path d="M84.964 56.511h0.226v0.452h-0.226z" fill="#7FDBD1"/><path d="M77.456 56.737h0.452v0.226h-0.452z" fill="#0D3B53"/><path d="M52.503 56.737h0.452v0.226h-0.452z" fill="#182158"/><path d="M53.463 56.003h0.452v0.226h-0.452z" fill="#7ADCCC"/><path d="M53.011 55.777h0.452v0.226h-0.452z" fill="#7AD4C9"/><path d="M79.319 55.326h0.226v0.452h-0.226z" fill="#142B4F"/><path d="M84.287 55.1h0.226v0.452h-0.226z" fill="#7CDFD3"/><path d="M82.593 54.648h0.452v0.226h-0.452z" fill="#043A4C"/><path d="M80.279 54.648h0.452v0.226h-0.452z" fill="#0D314A"/><path d="M82.142 54.422h0.452v0.226h-0.452z" fill="#1E596A"/><path d="M80.279 54.14h0.452v0.226h-0.452z" fill="#74E1CE"/><path d="M62.157 49.68h0.226v0.452h-0.226z" fill="#478C91"/><path d="M63.116 48.043h0.226v0.452h-0.226z" fill="#123F59"/><path d="M67.068 47.591h0.452v0.226h-0.452z" fill="#122C4B"/><path d="M63.342 47.309h0.452v0.226h-0.452z" fill="#7CDED0"/><path d="M66.165 46.857h0.452v0.226h-0.452z" fill="#72BEC3"/><path d="M64.979 46.857h0.452v0.226h-0.452z" fill="#5AA6AA"/><path d="M69.439 95.521h0.452v0.226h-0.452z" fill="#7FE2CF"/><path d="M63.342 95.521h0.395l0.056 0.226h-0.452z" fill="#7EDFCD"/><path d="M50.132 89.198h0.226v0.452l-0.226 -0.056z" fill="#7ED3CD"/><path d="M51.825 77.907h0.226v0.395l-0.226 0.056z" fill="#0F2E52"/><path d="M73.448 70.173h0.452v0.226h-0.395z" fill="#0F3B52"/><path d="M72.262 69.722h0.452v0.226h-0.395z" fill="#0C334D"/><path d="M58.826 63.794h0.226v0.452h-0.226z" fill="#0D3553"/><path d="m72.77 63.794 0.226 0.056v0.395h-0.226z" fill="#0F334F"/><path d="M62.382 102.635h0.226v0.169h0.734v0.056h-0.96z" fill="#50949A"/><path d="M62.608 95.521q0.122 -0.002 0.243 -0.004l0.137 -0.002C63.116 95.521 63.116 95.521 63.286 95.578v0.169h0.282v0.056h-0.452l-0.056 -0.226h-0.452z" fill="#4EA09B"/><path d="M75.762 89.65h0.056v0.508h-0.226l-0.056 0.226v-0.452h0.226z" fill="#33657C"/><path d="m57.414 89.198 0.056 0.226h0.226v0.508h-0.056v-0.282h-0.226z" fill="#4E8F9A"/><path d="M57.189 83.327h0.226v0.226h-0.169v0.734h-0.056z" fill="#54A5A0"/><path d="M63.568 75.762h0.96v0.056h-0.734v0.169h-0.226z" fill="#29576B"/><path d="M54.422 73.956h0.169v0.226l-0.113 0.056 -0.113 0.169h-0.169v-0.226l0.169 -0.056z" fill="#0B354E"/><path d="M72.939 69.947h0.452v0.169l-0.452 0.056z" fill="#0B3A4D"/><path d="M74.125 65.657h0.282v0.226l0.226 0.056h-0.508z" fill="#468C8F"/><path d="M58.826 64.245h0.226v0.226h-0.169v0.282h-0.226l-0.056 0.226v-0.282h0.226z" fill="#3D7289"/><path d="M79.883 64.245h0.113v0.226l-0.452 0.056v-0.226c0.068 0.002 0.068 0.002 0.138 0.004 0.141 0.013 0.141 0.013 0.201 -0.06" fill="#76E6CE"/><path d="M72.77 64.245h0.226v0.452h0.226v0.282l-0.056 -0.226h-0.226v-0.282h-0.169z" fill="#336477"/><path d="M82.593 54.592q0.12 -0.002 0.24 -0.004l0.135 -0.002c0.128 0.005 0.236 0.026 0.359 0.062v0.226h-0.282v-0.226h-0.452z" fill="#337C7F"/><path d="m56.003 99.304 0.056 0.226h0.226v0.226l0.226 0.056h-0.395c-0.105 -0.177 -0.124 -0.303 -0.113 -0.508" fill="#59A6A6"/><path d="m78.359 98.344 0.226 0.056h-0.169l-0.056 0.452h-0.226v-0.282h0.226z" fill="#5FB4AC"/><path d="M78.811 97.892h0.282v0.226l-0.452 0.056 -0.056 0.169v-0.226h0.226z" fill="#62B5B1"/><path d="M80.053 95.804h0.169v0.452h-0.226z" fill="#133856"/><path d="M64.245 95.804h0.565l-0.056 0.169h-0.508z" fill="#84DCD4"/><path d="M81.408 94.166h0.056v0.452h-0.226l-0.056 0.226v-0.452h0.226z" fill="#63B3B3"/><path d="M81.238 93.658h0.169v0.452h-0.226z" fill="#09334B"/><path d="M82.819 89.932h0.056v0.903l-0.056 -0.226h-0.169v-0.226h0.169z" fill="#59AAA7"/><path d="M75.762 88.747h0.226v0.226h-0.169v0.677h-0.056z" fill="#56A9A8"/><path d="M82.819 82.593h0.056v0.452h0.169v0.282h-0.226z" fill="#214C60"/><path d="M50.583 80.504h0.282v0.226h-0.226v0.452h-0.056z" fill="#58ACA6"/><path d="M58.826 79.319h0.056v0.452h-0.226l-0.056 0.226v-0.452h0.226z" fill="#4E8B9B"/><path d="m74.238 78.585 0.169 0.056 -0.056 0.395h-0.169q-0.003 -0.198 0 -0.395z" fill="#0C3450"/><path d="M81.408 78.133h0.226v0.452h-0.169z" fill="#143654"/><path d="M51.769 77.682h0.056v0.452h-0.226l-0.056 0.226v-0.452h0.226z" fill="#50969F"/><path d="m72.714 77.456 0.056 0.169 0.452 0.056v0.226h-0.282v-0.226h-0.226z" fill="#255563"/><path d="M60.011 77.456h0.452v0.169l-0.452 0.056z" fill="#122E4E"/><path d="M61.931 76.778h0.452v0.169l-0.452 0.056z" fill="#7FE3D4"/><path d="M80.053 75.536h0.226v0.226h0.226v0.282h-0.226l-0.056 -0.452z" fill="#356E7C"/><path d="m54.14 74.125 0.226 0.056h-0.169l-0.056 0.452h-0.226v-0.282h0.226z" fill="#174E61"/><path d="M56.511 71.359h0.226v0.395h-0.226z" fill="#7AE2D4"/><path d="M63.342 68.705h0.903v0.056h-0.677v0.169h-0.226z" fill="#5BB4AC"/><path d="M69.891 68.705h0.677v0.056l-0.166 0.021 -0.173 0.035 -0.056 0.113h-0.282z" fill="#71CFC2"/><path d="M77.456 65.657h0.452l-0.226 0.056v0.226h-0.452l0.226 -0.056z" fill="#5DAAAA"/><path d="M66.617 61.648h0.677v0.056h-0.452v0.226h-0.226z" fill="#74E5CE"/><path d="m58.826 60.745 0.056 0.226h0.226v0.452l-0.056 -0.226h-0.226z" fill="#478593"/><path d="m57.189 59.108 0.056 0.169 0.452 0.056v0.226h-0.282v-0.226h-0.226z" fill="#6EBFBB"/><path d="M74.633 58.6h0.226v0.226l0.226 0.056h-0.226v0.226l-0.226 -0.056h0.169v-0.226h-0.169z" fill="#69CBBC"/><path d="M79.77 54.592h0.508l-0.226 0.056 -0.056 0.226h-0.226z" fill="#51ACA3"/><path d="M79.319 54.648h0.226v0.395h-0.226z" fill="#79E4D1"/><path d="m68.48 48.495 0.018 0.109L68.536 48.72l0.169 0.056h-0.226v0.226h-0.226v-0.282h0.226z" fill="#193B5A"/><path d="M57.414 87.392h0.056v0.847h-0.226v-0.226h0.169z" fill="#76DBCE"/><path d="M83.271 86.827h0.056v0.677l-0.226 0.056v-0.282h0.169z" fill="#52A3A2"/><path d="M79.996 75.593h0.226v0.452l-0.169 -0.056z" fill="#133852"/><path d="M64.245 75.819h0.339l-0.056 0.169 0.113 0.056h-0.621l0.226 -0.056z" fill="#77C3C3"/><path d="M61.648 68.988h0.508v0.169h-0.508z" fill="#83DCD4"/><path d="m79.77 96.707 0.226 0.056h-0.169l-0.056 0.395 -0.226 0.056v-0.282h0.226z" fill="#58AAA8"/><path d="M71.302 95.07h0.282l-0.056 0.282h-0.452l0.226 -0.056z" fill="#245968"/><path d="M81.408 93.884h0.056l-0.056 0.508h-0.226v-0.282h0.226z" fill="#2A6A75"/><path d="m51.769 93.884 0.056 0.226 0.226 0.056v0.452h-0.056v-0.282h-0.169z" fill="#489499"/><path d="m74.577 80.053 0.056 0.169c0.114 0.041 0.114 0.041 0.226 0.056v0.226h-0.226c-0.076 -0.153 -0.06 -0.283 -0.056 -0.452" fill="#7FE2D3"/><path d="M51.317 78.867h0.056v0.452h0.169v0.226l-0.226 0.056z" fill="#183B56"/><path d="M51.543 78.359h0.056v0.508h-0.282v-0.226h0.226z" fill="#2C6774"/><path d="m81.182 77.174 0.282 0.056v0.452l-0.056 -0.226h-0.226z" fill="#5CADAF"/><path d="M65.431 75.593h0.508l-0.056 0.169h-0.452z" fill="#57ABA5"/><path d="M62.157 68.988h0.226v0.226h-0.734v-0.056h0.508z" fill="#76BFC1"/><path d="M80.956 62.89h0.339l-0.056 0.226h-0.508l0.226 -0.056z" fill="#73C9C2"/><path d="M64.245 61.197h0.226v0.226h0.282v0.056h-0.508z" fill="#62B6B3"/><path d="M75.762 58.148h0.226v0.226l-0.395 0.056 -0.056 0.169v-0.226h0.226z" fill="#244D63"/><path d="M59.108 101.393h0.452v0.282h-0.226v-0.226z" fill="#1F5363"/><path d="M54.366 97.892h0.226l0.056 0.452 -0.056 -0.169h-0.226z" fill="#5AA2A4"/><path d="M79.996 96.255h0.282v0.226h-0.226l-0.056 0.226z" fill="#549A9C"/><path d="M82.875 89.65h0.226v0.452l-0.056 -0.169 -0.169 0.056z" fill="#79D3C7"/><path d="M57.189 88.239h0.056v0.452h0.169v0.282h-0.169c-0.049 -0.169 -0.063 -0.318 -0.06 -0.494l0.002 -0.137z" fill="#30777F"/><path d="M76.214 86.827h0.056q0.002 0.12 0.004 0.24l0.002 0.135c-0.005 0.128 -0.026 0.236 -0.062 0.359h-0.169v-0.282h0.169z" fill="#67ABAF"/><path d="M83.101 84.964h0.169v0.452h-0.169z" fill="#3E898C"/><path d="M76.044 84.005h0.226v0.508l-0.056 -0.226h-0.169z" fill="#4E9394"/><path d="M50.188 83.101h0.169v0.452h-0.169z" fill="#3C717F"/><path d="M75.819 82.367h0.226v0.508l-0.056 -0.226h-0.169z" fill="#225D68"/><path d="M57.414 82.142h0.282v0.226h-0.226l-0.056 0.226z" fill="#4D8692"/><path d="M82.424 79.77h0.226v0.508l-0.056 -0.226h-0.169z" fill="#82DAD3"/><path d="M81.69 78.641h0.169v0.452h-0.169z" fill="#123B50"/><path d="M61.648 76.722h0.226v0.226l-0.395 0.056 -0.056 0.169v-0.226h0.226z" fill="#59A6A9"/><path d="M51.825 76.948h0.169v0.452h-0.169z" fill="#7ADFD3"/><path d="M56.003 72.262h0.226v0.226h-0.169l-0.056 0.226v-0.169l-0.169 0.056v-0.113h0.169z" fill="#17485A"/><path d="M76.044 71.528h0.452v0.282h-0.226v-0.226z" fill="#3A7482"/><path d="M68.028 68.536h0.452v0.169h-0.452z" fill="#6BB8B7"/><path d="m72.714 64.245 0.056 0.226h0.169v0.282h-0.226z" fill="#69AFB5"/><path d="M72.544 63.342h0.169v0.452h-0.169z" fill="#053B49"/><path d="m81.859 61.931 0.056 0.226h-0.226v0.226h-0.226v-0.226l0.395 -0.056z" fill="#1A445D"/><path d="M49.454 61.874h0.452v0.282h-0.226v-0.226z" fill="#1D5766"/><path d="M73.673 60.068h0.452v0.169h-0.452z" fill="#08314D"/><path d="M84.287 59.785h0.226v0.282h-0.226l-0.056 0.169z" fill="#4B9397"/><path d="M62.665 59.108h0.169v0.452h-0.169z" fill="#0B364E"/><path d="M48.72 56.963h0.056v0.452h-0.282v-0.226h0.226z" fill="#3B7A89"/><path d="M54.422 56.963h0.226v0.226h0.226l-0.056 0.226v-0.169l-0.395 -0.056z" fill="#377982"/><path d="M53.463 56.229h0.452v0.282h-0.226v-0.226z" fill="#63B4B1"/><path d="M49.68 56.003h0.452l-0.226 0.056v0.226h-0.226z" fill="#37777C"/><path d="M50.414 55.834h0.452v0.169h-0.452z" fill="#0B334B"/><path d="M80.73 54.422h0.226v0.226h-0.677v-0.056h0.452z" fill="#27576A"/><path d="M57.245 82.819h0.169v0.282h-0.169l-0.056 0.226c-0.006 -0.347 -0.006 -0.347 0 -0.452z" fill="#29696E"/><path d="M58.431 70.343h0.169v0.282h-0.452l0.226 -0.056z" fill="#7ED8D2"/><path d="M56.229 58.656h0.282v0.169l0.226 0.056h-0.452z" fill="#1A455F"/><path d="M64.245 102.804h0.508c-0.099 0.113 -0.099 0.113 -0.226 0.226h-0.226z" fill="#0F4355"/><path d="M69.665 75.762h0.508l-0.226 0.113 -0.056 0.113h-0.226z" fill="#123850"/><path d="m48.946 61.197 0.056 0.226h0.226v0.226h-0.226c-0.076 -0.153 -0.06 -0.283 -0.056 -0.452" fill="#539C9F"/><path d="M68.988 59.56h0.226v0.226l-0.452 0.113v-0.113h0.226z" fill="#7DDDCF"/><path d="M74.125 101.449h0.339l-0.056 0.226h-0.282z" fill="#74CAC6"/><path d="M54.14 97.441h0.339l-0.056 0.226h-0.282z" fill="#133F57"/><path d="M66.842 96.255h0.339l-0.056 0.226h-0.282z" fill="#214869"/><path d="M70.173 95.578h0.226v0.226h-0.508v-0.056h0.282z" fill="#368181"/><path d="m70.381 95.518 0.138 0.002 0.105 0.002v0.056h-0.452v0.169h-0.226v-0.169c0.163 -0.054 0.265 -0.062 0.434 -0.06" fill="#57AFA5"/><path d="M71.585 95.07h0.226l0.056 0.282h-0.282z" fill="#10324F"/><path d="M82.593 81.182h0.056v0.282h0.169v0.226h-0.226z" fill="#31727A"/><path d="M80.73 76.722h0.226v0.282l-0.226 0.056z" fill="#093B4D"/><path d="M56.229 72.262h0.282v0.226l-0.226 0.056z" fill="#13324F"/><path d="M72.714 69.439h0.339l-0.056 0.226h-0.282z" fill="#7CDACC"/><path d="M81.464 62.608h0.226v0.226l-0.395 0.056 0.113 -0.056c0.037 -0.114 0.037 -0.114 0.056 -0.226" fill="#7CDDD0"/><path d="M62.157 50.132h0.226v0.282l-0.226 0.056z" fill="#34777D"/><path d="M68.988 49.906h0.169l0.056 0.508 -0.056 -0.226 -0.169 0.056z" fill="#26616E"/><path d="M67.068 47.309h0.508v0.226h-0.226v-0.169h-0.282z" fill="#509496"/><path d="M63.794 102.86h0.226v0.169l0.226 0.056h-0.452z" fill="#347F84"/><path d="M70.625 102.635h0.226v0.226h-0.452l0.226 -0.056z" fill="#4D9196"/><path d="M71.302 102.352h0.282v0.226h-0.282z" fill="#296672"/><path d="M61.423 102.126h0.282v0.226h-0.282z" fill="#103054"/><path d="M60.237 101.901h0.282v0.226h-0.282z" fill="#3D818A"/><path d="M57.414 100.715h0.282v0.226h-0.282z" fill="#7EDFD3"/><path d="M78.359 98.626h0.282v0.226h-0.282z" fill="#78E4CC"/><path d="M77.907 98.57h0.226v0.282h-0.226z" fill="#195B63"/><path d="M53.406 96.989h0.282v0.226h-0.282z" fill="#74D1C8"/><path d="M80.053 96.481h0.226l-0.056 0.282 -0.169 0.056z" fill="#7EDCCD"/><path d="M68.705 96.029h0.282v0.226h-0.282z" fill="#215A6D"/><path d="M64.471 96.029h0.282v0.226h-0.282z" fill="#31717B"/><path d="M52.503 95.747h0.226v0.282h-0.226z" fill="#81E0D5"/><path d="M70.851 95.352h0.226v0.226h-0.452l0.226 -0.056z" fill="#225E68"/><path d="M70.625 95.295h0.452l-0.226 0.056v0.169h-0.226z" fill="#5BA7A7"/><path d="M61.648 94.844h0.282v0.226h-0.282z" fill="#79C9C6"/><path d="M52.954 94.844h0.282v0.226h-0.282z" fill="#132555"/><path d="M52.051 94.11h0.226v0.282h-0.226z" fill="#073449"/><path d="M81.633 93.432h0.056v0.452h-0.226v-0.226h0.169z" fill="#37757F"/><path d="M81.69 93.658h0.226l-0.056 0.282 -0.169 0.056z" fill="#80DFD3"/><path d="M58.148 91.287h0.226v0.282h-0.226z" fill="#407E88"/><path d="M82.593 90.158h0.226v0.226h-0.169l-0.056 0.226z" fill="#31747E"/><path d="m50.358 89.932 0.056 0.226h0.169v0.226h-0.226z" fill="#5FB4AB"/><path d="M75.536 89.65h0.226v0.282h-0.226z" fill="#5B9EAA"/><path d="M75.988 88.747h0.056v0.452h-0.226v-0.226h0.169z" fill="#3D838B"/><path d="m57.189 88.747 0.056 0.226h0.169v0.226h-0.226z" fill="#195364"/><path d="M56.963 84.23h0.226v0.282h-0.226z" fill="#2D6478"/><path d="M50.414 82.142h0.226v0.395l-0.056 -0.169 -0.169 0.056z" fill="#0E4053"/><path d="M82.875 81.916h0.226v0.452l-0.056 -0.226h-0.169z" fill="#79CBC4"/><path d="m75.536 81.69 0.056 0.226h0.169v0.226h-0.226z" fill="#55949A"/><path d="M50.583 81.69h0.056v0.452h-0.226v-0.226h0.169z" fill="#24626D"/><path d="M57.922 81.182h0.226v0.282h-0.226z" fill="#84D6D2"/><path d="m82.593 80.73 0.056 0.226h0.169v0.226h-0.226z" fill="#63B5B0"/><path d="M75.311 80.956h0.282v0.226h-0.282z" fill="#134A5A"/><path d="M74.859 79.996h0.226v0.282h-0.226z" fill="#175965"/><path d="M51.091 78.585h0.226v0.282h-0.226z" fill="#83E3D7"/><path d="M80.956 76.496h0.282v0.226h-0.282z" fill="#7EE2D4"/><path d="M71.528 76.496h0.282v0.226h-0.282z" fill="#0E3354"/><path d="M52.503 75.988h0.226v0.282h-0.226z" fill="#7BC9CC"/><path d="M69.213 75.762h0.452v0.226h-0.226v-0.169z" fill="#275567"/><path d="M69.213 75.819h0.226v0.169l0.226 0.056h-0.452z" fill="#4E8C93"/><path d="M68.254 75.536h0.452v0.226h-0.226v-0.169z" fill="#1B5063"/><path d="M68.705 75.536h0.282v0.226h-0.282z" fill="#113D57"/><path d="M60.519 69.665h0.452l-0.226 0.056v0.169h-0.226z" fill="#114858"/><path d="M60.237 69.439h0.282v0.226h-0.282z" fill="#7BE2D1"/><path d="M71.528 69.213h0.282v0.226h-0.282z" fill="#4E999E"/><path d="M61.648 69.213h0.282v0.226h-0.282z" fill="#377783"/><path d="M64.02 68.762h0.226v0.226h-0.452l0.226 -0.056z" fill="#21626A"/><path d="M74.633 65.883h0.452v0.226h-0.226v-0.169z" fill="#29666D"/><path d="M56.963 65.939h0.226v0.226h-0.452l0.226 -0.056z" fill="#58A2A6"/><path d="M56.737 65.883h0.452l-0.226 0.056v0.169h-0.226z" fill="#356C7D"/><path d="M54.874 65.883h0.452v0.226h-0.226v-0.169z" fill="#255969"/><path d="M54.14 65.657h0.452v0.226h-0.226v-0.169z" fill="#2D6A75"/><path d="M53.18 64.979h0.282v0.226h-0.282z" fill="#5FA9AB"/><path d="M52.729 64.471h0.226v0.282h-0.226z" fill="#3A7486"/><path d="M79.996 63.568h0.282v0.226h-0.282z" fill="#599AA0"/><path d="M72.262 63.06h0.226v0.282h-0.226z" fill="#599DA0"/><path d="M50.358 62.382h0.282v0.226h-0.282z" fill="#153D57"/><path d="M72.262 61.648h0.226v0.282h-0.226z" fill="#7ADACD"/><path d="M72.77 61.423h0.226v0.282h-0.226z" fill="#0D2F4C"/><path d="M64.471 61.197h0.282v0.226h-0.282z" fill="#377A83"/><path d="M82.593 61.197h0.282v0.226h-0.282z" fill="#1D5564"/><path d="M72.939 60.971h0.056v0.452h-0.226v-0.226h0.169z" fill="#163E57"/><path d="M82.593 60.971h0.282v0.226h-0.282z" fill="#12304F"/><path d="M72.714 60.971h0.226v0.226h-0.169l-0.056 0.226z" fill="#306B77"/><path d="M48.495 60.237h0.226v0.282h-0.226z" fill="#09334F"/><path d="M48.269 60.237h0.226v0.282h-0.226z" fill="#478C93"/><path d="M57.414 59.56h0.282v0.226h-0.282z" fill="#1A4D61"/><path d="M74.351 59.108h0.282v0.226h-0.282z" fill="#75BFC2"/><path d="M84.738 58.826h0.226v0.282h-0.226z" fill="#356E79"/><path d="M56.003 58.148h0.282v0.226h-0.282z" fill="#76C6C5"/><path d="M54.592 56.737h0.282v0.226h-0.282z" fill="#7DE6D1"/><path d="M53.18 56.285h0.282v0.226h-0.282z" fill="#0F344E"/><path d="M49.228 56.003h0.452v0.226h-0.226v-0.169z" fill="#76D2C5"/><path d="M52.503 55.834h0.226v0.169l0.226 0.056h-0.452z" fill="#154558"/><path d="M84.061 55.1h0.226v0.452l-0.056 -0.226h-0.169z" fill="#75C8C4"/><path d="M83.101 54.592h0.452v0.226h-0.226v-0.169z" fill="#74CEC5"/><path d="M82.819 54.366h0.282v0.226h-0.282z" fill="#71D4CB"/><path d="M82.367 54.366h0.452v0.226h-0.226v-0.169z" fill="#52AAA9"/><path d="M80.504 54.366h0.452l-0.226 0.056v0.169h-0.226z" fill="#478890"/><path d="M62.382 48.946h0.226v0.282h-0.226z" fill="#498B90"/><path d="M67.802 47.309h0.226v0.282h-0.226z" fill="#7EDFCD"/><path d="M66.617 47.309h0.452l-0.226 0.056v0.169h-0.226z" fill="#17405A"/><path d="M65.883 46.857h0.282v0.226h-0.282z" fill="#569DA3"/><path d="M62.157 102.635h0.226v0.226h-0.395l0.169 -0.056z" fill="#78C9C6"/><path d="M60.294 102.183h0.226v0.169l0.226 0.056h-0.395z" fill="#7DDFD4"/><path d="M57.697 80.956h0.169v0.282h-0.169l-0.056 0.169z" fill="#103752"/><path d="M61.479 77.004h0.282v0.226h-0.339z" fill="#71DCCB"/><path d="M71.076 76.778h0.282v0.169l0.169 0.056 -0.452 -0.056z" fill="#74E2D3"/><path d="M62.834 68.988h0.282l-0.056 0.226h-0.226z" fill="#1E4A61"/><path d="M85.19 56.737h0.226v0.226l-0.226 0.113z" fill="#73DFCA"/><path d="M61.648 95.07h0.282v0.226h-0.226z" fill="#1D5465"/><path d="M58.6 92.247h0.226v0.282l-0.226 -0.056z" fill="#144257"/><path d="M81.238 76.948h0.169l0.056 0.282h-0.226z" fill="#79DDD1"/><path d="M63.116 68.988h0.282l-0.056 0.226h-0.282z" fill="#153C57"/><path d="m53.18 64.584 0.056 0.113c0.114 0.037 0.114 0.037 0.226 0.056v0.169h-0.226z" fill="#0C3550"/><path d="M48.269 60.011h0.282l-0.056 0.226h-0.226z" fill="#144A5B"/><path d="M74.125 59.56h0.226v0.226l-0.226 0.056z" fill="#1D4261"/><path d="M56.737 58.6h0.282l-0.056 0.226h-0.226z" fill="#74DDCF"/><path d="M71.076 102.635h0.282l-0.056 0.226h-0.226z" fill="#7FD2CD"/><path d="M71.585 102.352h0.452v0.056h-0.282v0.169h-0.169z" fill="#4A9097"/><path d="M74.125 101.675h0.282l-0.056 0.226h-0.226z" fill="#78E4D0"/><path d="M79.093 97.667h0.226v0.226l-0.226 0.056z" fill="#7DDED1"/><path d="M52.954 96.255h0.226v0.226l-0.226 0.056z" fill="#78C6C6"/><path d="M62.834 95.578h0.226l0.056 0.226h-0.282z" fill="#2B7174"/><path d="M51.825 93.884h0.226v0.282l-0.226 -0.056z" fill="#124E5C"/><path d="M51.317 93.432h0.226v0.226l-0.226 0.056z" fill="#80E2D6"/><path d="M81.69 92.755h0.169v0.226h-0.169l-0.056 0.226z" fill="#0E364F"/><path d="M82.424 91.795h0.169v0.226l-0.113 0.056 -0.113 0.169z" fill="#7CDCD0"/><path d="M74.633 91.061h0.226v0.226l-0.226 0.056z" fill="#7AE7D0"/><path d="M75.593 90.158h0.226v0.226l-0.226 0.056z" fill="#143857"/><path d="M50.414 89.65h0.226v0.282l-0.226 -0.056z" fill="#1C5B64"/><path d="M57.245 88.239h0.226v0.282l-0.226 -0.056z" fill="#66C3BC"/><path d="M83.101 88.013h0.226v0.226l-0.226 0.056z" fill="#72CFC4"/><path d="M56.963 87.787h0.226v0.226l-0.226 0.056z" fill="#16435E"/><path d="M83.101 84.005h0.226v0.282l-0.226 -0.056z" fill="#64B3B4"/><path d="M82.819 83.327h0.226v0.226l-0.226 0.056z" fill="#133953"/><path d="M75.762 83.101h0.226v0.226l-0.169 0.056z" fill="#72D3C5"/><path d="M57.189 82.593h0.226v0.226l-0.226 0.056z" fill="#144655"/><path d="M50.132 82.593h0.226v0.226l-0.226 0.056z" fill="#6EB8BA"/><path d="M58.148 80.73h0.226v0.226l-0.226 0.056z" fill="#80E0D7"/><path d="M82.142 80.279h0.226v0.226l-0.226 0.056z" fill="#0B2F4D"/><path d="M81.916 79.545h0.226v0.226l-0.226 0.056z" fill="#0F3250"/><path d="M80.504 76.722h0.226v0.226l-0.226 0.056z" fill="#1C3657"/><path d="M53.463 74.633h0.169v0.226h-0.169l-0.056 0.226z" fill="#74CCC5"/><path d="M57.245 71.359h0.169v0.226h-0.452v-0.056h0.282z" fill="#22616E"/><path d="m71.076 68.931 0.282 0.056 -0.056 0.169h-0.226z" fill="#7DD2CD"/><path d="M75.311 66.165h0.226l0.056 0.226h-0.282z" fill="#78D6CA"/><path d="M58.882 64.979h0.226v0.226l-0.226 0.056z" fill="#71E1CD"/><path d="m72.996 64.471 0.282 0.056 -0.056 0.169h-0.226z" fill="#143754"/><path d="m78.867 64.245 0.226 0.056v0.169h-0.282z" fill="#0F324B"/><path d="M59.108 61.648h0.226v0.282l-0.226 -0.056z" fill="#297573"/><path d="M63.794 60.745h0.282l-0.056 0.226h-0.226z" fill="#08354D"/><path d="m62.834 60.011 0.226 0.056v0.226h-0.226z" fill="#579FA3"/><path d="M73.222 59.56h0.282l-0.056 0.226h-0.226z" fill="#78E5C8"/><path d="M58.148 59.56h0.226v0.226l-0.226 0.056z" fill="#76E5CE"/><path d="M69.213 58.6v0.282h-0.226v-0.226c0.169 -0.056 0.169 -0.056 0.226 -0.056" fill="#1A5965"/><path d="M69.213 58.374h0.226v0.226l-0.226 0.056z" fill="#7DCDCC"/><path d="M53.18 56.059h0.226l0.056 0.226h-0.282z" fill="#2E6D74"/><path d="M49.906 56.059h0.226v0.226l-0.226 0.056z" fill="#113D4F"/><path d="M78.359 55.777h0.282l-0.056 0.226h-0.226z" fill="#4C9798"/><path d="M50.132 55.777h0.282l-0.056 0.226h-0.226z" fill="#48868D"/><path d="M52.503 55.551h0.282l-0.056 0.226h-0.226z" fill="#7EDAD0"/><path d="M80.053 54.648h0.226v0.226h-0.282z" fill="#1E5F66"/><path d="M69.439 49.68h0.226v0.226l-0.226 0.056z" fill="#75EBCD"/><path d="M68.762 49.003h0.226v0.452h-0.056v-0.282h-0.169z" fill="#32737C"/><path d="M68.762 48.72h0.226v0.282l-0.226 -0.056z" fill="#64B8B2"/></svg>